<?xml version="1.0" standalone="no"?>
<!DOCTYPE svg PUBLIC "-//W3C//DTD SVG 20010904//EN"
 "http://www.w3.org/TR/2001/REC-SVG-20010904/DTD/svg10.dtd">
<svg version="1.0" xmlns="http://www.w3.org/2000/svg"
 width="2048.000000pt" height="2048.000000pt" viewBox="0 0 2048.000000 2048.000000"
 preserveAspectRatio="xMidYMid meet">
<metadata>
Created by potrace 1.14, written by Peter Selinger 2001-2017
</metadata>
<g transform="translate(0.000000,2048.000000) scale(0.100000,-0.100000)"
fill="#000000" stroke="none">
<path d="M10 10240 l0 -10240 10235 0 10235 0 0 10240 0 10240 -10235 0
-10235 0 0 -10240z m10518 7751 l3 -114 -38 6 c-273 44 -296 45 -439 16 -58
-12 -107 -19 -109 -17 -3 2 -8 51 -11 107 -6 81 -4 105 6 111 8 5 142 8 299 7
l286 -2 3 -114z m-211 -287 c145 -33 255 -121 321 -253 36 -73 37 -77 37 -190
0 -112 -2 -119 -34 -184 -73 -146 -230 -237 -410 -237 -90 0 -149 14 -222 50
-105 53 -167 129 -210 257 -23 69 -23 168 0 253 38 141 166 261 321 302 82 21
113 22 197 2z m-72 -1079 c116 0 229 3 253 8 l42 7 0 -120 0 -120 -310 0 -310
0 0 121 0 121 58 -8 c31 -5 152 -9 267 -9z m293 -522 l-3 -108 -307 0 -308 0
0 108 0 107 310 0 311 0 -3 -107z m-940 -386 l3 -338 -138 3 -138 3 -3 338 -2
338 137 -3 138 -3 3 -338z m1551 46 c0 -164 -3 -316 -7 -338 l-7 -40 -130 0
-130 0 -3 338 -2 337 140 0 140 0 -1 -297z m-611 -86 l3 -119 -53 7 c-77 10
-454 11 -515 1 l-53 -9 0 122 0 121 308 -2 307 -3 3 -118z m-2000 -142 l3
-135 -26 -10 c-17 -6 -492 -10 -1314 -10 l-1288 0 -69 77 c-86 96 -174 202
-174 211 0 4 645 6 1432 4 l1433 -2 3 -135z m577 -5 l0 -145 -155 0 -155 0 -3
148 -3 148 158 -3 158 -3 0 -145z m2533 17 c1 -76 -2 -135 -8 -147 -10 -19
-21 -20 -155 -20 l-145 0 0 143 c0 79 3 147 7 151 4 3 72 5 152 4 l146 -3 3
-128z m3122 122 c0 -18 -123 -170 -188 -231 l-61 -58 -1299 0 -1299 0 -6 68
c-4 37 -7 102 -7 144 l0 78 1393 3 c765 1 1409 3 1430 5 22 1 37 -3 37 -9z
m-4403 -344 c93 -24 162 -64 233 -134 82 -80 142 -196 167 -317 16 -76 16 -87
0 -170 -41 -212 -169 -366 -359 -428 -100 -33 -181 -40 -266 -23 -253 51 -411
217 -452 473 -12 72 -5 121 31 244 40 136 170 281 298 332 96 38 250 48 348
23z m-844 -225 c2 -3 -23 -61 -57 -130 l-62 -125 -1400 -5 -1399 -5 -3 -302
-2 -303 119 0 118 0 7 61 c4 33 6 104 5 158 -1 55 2 104 5 110 8 12 1587 17
1599 5 3 -3 -16 -36 -43 -72 -27 -36 -46 -71 -43 -77 4 -5 3 -7 -2 -3 -9 8
-42 -32 -37 -45 1 -5 -2 -6 -7 -3 -5 3 -11 -1 -15 -9 -5 -13 -80 -15 -589 -15
l-584 0 -6 -97 c-4 -54 -7 -139 -7 -190 0 -81 -2 -94 -19 -103 -13 -6 -157
-10 -399 -10 l-380 0 -4 411 c-2 225 -2 488 0 582 l4 172 1598 0 c879 0 1600
-2 1603 -5z m4625 -569 c2 -453 0 -576 -10 -583 -7 -4 -190 -8 -405 -8 l-393
0 0 203 0 202 -689 -3 -688 -4 -7 32 c-3 18 -6 70 -6 116 l0 84 33 1 c159 3
1569 -3 1593 -7 l31 -6 7 -161 c4 -89 8 -162 9 -163 7 -7 200 -16 222 -10 l26
7 -2 304 -2 305 -1401 0 -1401 0 -39 73 c-21 39 -54 97 -72 128 -19 31 -34 60
-34 63 0 4 726 6 1613 4 l1612 -3 3 -574z m-6808 -221 c0 -5 -2 -10 -4 -10 -3
0 -8 5 -11 10 -3 6 -1 10 4 10 6 0 11 -4 11 -10z m1472 -622 c71 -21 118 -105
96 -171 -22 -65 -82 -107 -153 -107 -70 0 -149 104 -131 174 9 38 63 95 100
105 43 13 44 13 88 -1z m2911 0 c84 -25 124 -138 77 -215 -52 -86 -177 -87
-233 -1 -51 78 -25 161 63 206 52 26 43 25 93 10z m-3858 -108 c-2 -3 5 -6 16
-6 12 0 18 5 15 13 -3 7 -1 13 4 13 6 0 10 -6 10 -12 0 -7 5 -350 10 -761 5
-411 12 -752 15 -757 4 -6 90 -10 205 -10 l198 0 4 -41 c2 -22 2 -42 -1 -45
-2 -2 -116 -4 -253 -4 l-248 0 0 804 c0 442 3 812 6 821 5 13 9 14 15 4 4 -7
6 -16 4 -19z m2611 -172 l104 -101 0 -450 0 -450 -22 -23 c-13 -12 -33 -36
-46 -53 -13 -17 -29 -31 -36 -31 -7 0 -32 -22 -56 -50 -24 -27 -47 -50 -52
-50 -4 0 -8 295 -8 655 0 360 3 655 6 655 3 0 52 -46 110 -102z m2461 32 c18
-10 39 -33 48 -50 15 -29 15 -32 -5 -60 -23 -33 -58 -60 -76 -60 -6 0 -28 17
-48 37 -45 47 -47 83 -7 124 35 34 45 35 88 9z m-7570 -142 c-3 -8 -6 -5 -6 6
-1 11 2 17 5 13 3 -3 4 -12 1 -19z m4639 -107 l101 -106 7 -340 c6 -336 2
-465 -16 -465 -5 0 -45 34 -90 77 -63 60 -82 73 -89 62 -8 -12 -10 -12 -8 1 1
8 -3 28 -9 43 -14 32 -17 838 -4 836 4 -1 52 -49 108 -108z m-4634 24 c0 -31
5 -55 10 -55 6 0 5 -6 -2 -15 -9 -10 -9 -15 -1 -15 6 0 12 -10 13 -22 0 -13 4
0 8 27 5 38 7 21 8 -70 1 -66 5 -325 8 -575 3 -250 7 -461 10 -467 2 -10 66
-13 273 -13 180 0 272 -4 276 -11 4 -6 4 -71 0 -145 l-7 -134 -34 0 -34 0 0
59 c0 32 -3 79 -6 105 l-7 46 -268 0 -269 0 0 538 c0 508 7 818 18 807 3 -2 5
-29 4 -60z m1278 -55 c11 -11 20 -31 20 -44 0 -33 -37 -76 -65 -76 -27 0 -65
43 -65 73 0 28 39 67 67 67 13 0 32 -9 43 -20z m2945 -220 c0 -129 -3 -162
-15 -174 -33 -31 -421 -303 -447 -313 -18 -7 -19 305 0 329 25 33 430 318 451
318 8 0 11 -51 11 -160z m1530 -5 l220 -146 6 -62 c9 -90 10 -240 1 -254 -12
-20 -379 215 -447 286 -35 37 -44 101 -37 248 4 81 7 91 21 84 9 -5 115 -75
236 -156z m3587 121 c10 -14 6 -1232 -4 -1241 -3 -4 -25 -9 -47 -12 l-41 -6 0
636 0 636 23 4 c28 5 60 -2 69 -17z m-1177 -518 c3 -24 7 -311 8 -638 l2 -595
368 1 367 1 0 -38 c0 -21 -4 -40 -8 -43 -6 -4 -721 -10 -799 -6 -10 0 -13 132
-13 628 0 345 3 651 6 680 6 49 8 52 35 52 25 0 28 -4 34 -42z m-6921 -86 c3
-5 6 -218 6 -473 1 -255 4 -513 7 -573 l6 -109 714 5 713 4 0 -43 0 -43 -467
-2 c-258 -2 -598 -3 -758 -3 l-290 0 -3 290 c-2 160 0 440 3 623 l7 332 29 0
c15 0 30 -4 33 -8z m2982 -829 l-1 -778 -145 0 -145 0 -3 672 -2 673 21 17
c12 10 36 30 53 44 76 64 209 158 216 154 4 -2 7 -355 6 -782z m1413 695 c66
-46 128 -88 138 -94 16 -10 18 -57 21 -662 3 -358 1 -667 -2 -686 l-7 -36
-138 0 -138 0 -7 58 c-9 89 -7 1502 3 1502 5 0 64 -37 130 -82z m1658 -254
l142 -6 6 -29 c4 -16 4 -33 0 -39 -4 -6 -158 -10 -451 -10 l-444 0 0 44 c0 26
5 46 13 49 15 6 543 -1 734 -9z m-2557 -1082 c9 -673 10 -2734 2 -2772 -4 -19
-12 -35 -18 -35 -5 0 -51 47 -101 105 l-90 105 -8 1582 c-4 870 -4 1586 -1
1592 4 6 51 -27 109 -75 l102 -86 5 -416z m470 -1001 l0 -1578 -24 -36 c-13
-19 -22 -37 -20 -39 2 -3 -10 -18 -28 -34 -17 -16 -27 -23 -23 -15 5 9 4 12
-3 7 -7 -4 -12 -14 -12 -22 0 -8 -7 -17 -15 -20 -8 -4 -12 -11 -8 -17 3 -5 2
-7 -4 -4 -5 4 -23 -7 -38 -23 -16 -17 -32 -30 -37 -30 -4 0 -8 721 -8 1603 l0
1603 100 98 c54 54 104 95 110 91 7 -4 10 -494 10 -1584z m2265 1359 c39 -43
11 -140 -39 -140 -38 0 -56 10 -71 41 -19 37 -19 48 5 87 16 26 26 32 53 32
21 0 41 -8 52 -20z m-4305 -30 c43 -43 10 -125 -47 -118 -35 4 -68 49 -59 81
14 56 68 75 106 37z m-193 -679 c15 -30 0 -74 -32 -95 -33 -22 -48 -20 -75 9
-32 34 -30 83 5 112 23 21 29 22 58 10 18 -8 37 -24 44 -36z m1253 -1539 l0
-1469 63 -107 c75 -129 74 -128 174 -293 44 -72 126 -212 183 -310 143 -250
208 -357 218 -361 4 -1 39 53 77 120 129 230 356 613 493 828 l66 105 1 155
c0 85 1 750 3 1478 l2 1322 139 0 139 0 5 -42 c3 -24 5 -716 4 -1538 l-2
-1495 -46 -80 c-26 -44 -77 -134 -114 -200 -38 -66 -103 -178 -146 -250 -91
-154 -479 -829 -556 -967 -30 -54 -58 -100 -64 -103 -5 -4 -13 5 -19 19 -5 14
-20 42 -33 63 -22 36 -343 586 -502 863 -40 69 -125 217 -190 330 -65 113
-134 239 -154 280 l-36 75 -3 1100 c-2 605 0 1290 4 1523 l6 422 144 0 144 0
0 -1468z m4238 1428 c24 -23 29 -69 10 -88 -7 -7 -28 -12 -48 -12 -45 0 -60
15 -60 56 0 23 7 38 22 48 30 21 50 20 76 -4z m1297 -5 c32 -31 31 -46 -1 -84
-31 -38 -44 -38 -83 -5 -36 30 -39 59 -9 91 28 30 63 29 93 -2z m-8170 -45 l0
-45 -962 -3 -963 -2 0 43 c0 24 3 47 7 50 3 4 437 6 962 5 l956 -3 0 -45z
m6595 12 c0 -21 -5 -43 -12 -50 -9 -9 -218 -12 -880 -12 l-868 0 0 50 0 50
880 0 880 0 0 -38z m669 24 c18 -21 21 -53 7 -65 -7 -6 -55 -12 -107 -14 l-94
-2 -3 48 -3 47 94 0 c69 0 98 -4 106 -14z m-674 -550 c6 -6 11 -20 12 -31 2
-24 23 -721 26 -885 l2 -115 183 -3 183 -2 -3 -158 -3 -157 -36 -3 c-34 -3
-37 -1 -43 29 -3 17 -6 71 -6 120 l0 89 -185 0 -185 0 0 313 c0 173 3 429 7
569 5 229 8 256 22 250 9 -3 21 -11 26 -16z m-5715 -69 c0 -43 -1 -44 -42 -57
-59 -17 -95 -45 -118 -90 -38 -75 -20 -149 47 -195 68 -45 157 -30 222 39 52
54 91 44 91 -22 0 -49 -78 -122 -155 -147 -50 -15 -65 -16 -111 -6 -72 17
-142 65 -179 125 -27 45 -30 57 -30 135 0 95 18 142 73 194 36 34 114 66 165
67 l37 0 0 -43z m-1830 -92 c37 -19 64 -69 56 -101 -6 -24 -59 -64 -84 -64
-22 0 -82 66 -82 89 0 21 55 91 72 91 5 0 22 -7 38 -15z m6368 -491 c47 -19
98 -67 125 -119 28 -52 30 -174 4 -222 -69 -128 -221 -179 -345 -117 -126 63
-176 212 -113 335 30 59 57 86 111 115 55 28 160 33 218 8z m2810 -81 l-3 -38
-272 -3 -273 -2 0 40 0 40 276 0 275 0 -3 -37z m-8670 -230 l-3 -48 -517 -3
-518 -2 0 43 c0 24 3 47 7 50 3 4 238 7 520 7 l514 0 -3 -47z m586 -395 c4
-134 6 -513 4 -843 l-3 -599 -35 -7 c-19 -4 -38 -5 -42 -3 -9 6 -11 1565 -2
1642 7 51 8 52 39 52 l33 0 6 -242z m1108 -202 c4 -6 7 -411 5 -901 l-2 -890
-40 0 -40 0 1 880 c0 484 3 892 7 908 7 24 11 26 35 21 15 -4 30 -12 34 -18z
m5236 -216 c45 -43 15 -120 -47 -120 -56 0 -81 73 -39 117 27 28 57 29 86 3z
m-7517 -125 c25 3 27 0 33 -48 8 -74 7 -1360 -2 -1373 -4 -7 -23 -14 -42 -15
l-35 -4 -7 95 c-8 109 0 1307 9 1360 6 33 7 34 12 9 5 -21 11 -26 32 -24z
m6358 -195 c13 0 21 -9 25 -27 2 -16 6 -343 8 -728 l3 -700 -42 -3 -43 -3 0
713 c0 392 3 731 7 752 5 34 7 37 14 18 5 -12 17 -22 28 -22z m2006 -255 l0
-40 -297 -3 -298 -2 0 39 c0 33 4 40 23 44 12 2 146 4 297 3 l275 -1 0 -40z
m337 -5 l-4 -40 -64 0 -64 0 0 40 0 40 68 0 68 0 -4 -40z m-1192 -910 l0 -450
120 0 120 0 0 -50 0 -50 -170 0 -170 0 0 493 c0 272 3 497 7 500 3 4 26 7 50
7 l43 0 0 -450z m-6290 -450 c65 -13 153 -45 157 -57 4 -12 -30 -26 -147 -59
-85 -23 -85 -23 -112 -4 -26 19 -45 20 -378 20 l-350 0 0 44 0 45 353 -2 c321
-2 354 0 377 16 14 9 32 15 40 11 8 -3 35 -9 60 -14z m468 -6 c32 -22 30 -76
-4 -103 -34 -27 -50 -26 -79 4 -30 30 -31 54 -4 89 23 29 54 33 87 10z m7627
-49 l0 -40 -676 -3 -676 -2 -6 36 c-4 21 -5 40 -3 43 2 3 309 6 683 6 l678 -1
0 -39z m-8855 -1375 l0 -50 -165 0 -165 0 0 -310 0 -310 -65 0 -65 0 0 310 0
310 -165 0 -165 0 0 50 0 50 395 0 395 0 0 -50z m1413 -304 c108 -195 197
-357 197 -360 0 -3 -30 -6 -67 -6 l-68 0 -45 88 -45 87 -240 3 -240 2 -48 -90
-48 -90 -60 0 c-32 0 -59 2 -59 4 0 4 307 567 362 664 l29 52 67 0 67 0 198
-354z m1199 205 l3 -148 215 148 215 148 95 1 94 0 -261 -172 -262 -173 287
-185 286 -185 -102 -3 -103 -3 -230 156 c-126 85 -232 155 -234 155 -3 0 -5
-70 -5 -155 l0 -155 -65 0 -65 0 0 360 0 360 65 0 64 0 3 -149z m2189 126 c36
-24 57 -70 58 -123 1 -29 -2 -33 -43 -43 -65 -16 -66 -16 -66 39 l0 50 -250 0
-250 0 0 -100 0 -100 255 0 c359 0 360 -1 360 -210 0 -138 -6 -159 -58 -190
-30 -19 -52 -20 -317 -20 -359 0 -368 3 -386 137 l-6 52 43 11 c24 6 52 13 62
16 15 5 17 -2 17 -55 l0 -61 265 0 265 0 0 104 0 105 -262 3 c-345 4 -347 5
-355 188 -6 117 8 165 56 197 33 23 39 23 306 23 267 0 273 0 306 -23z m1189
-122 l0 -145 280 0 280 0 0 145 0 145 65 0 65 0 0 -360 0 -360 -65 0 -65 0 0
165 0 165 -280 0 -280 0 0 -165 0 -165 -65 0 -65 0 0 360 0 360 65 0 65 0 0
-145z m2247 -155 c90 -162 180 -323 199 -357 l35 -63 -70 0 -71 0 -45 90 -45
90 -240 0 -239 0 -48 -90 -48 -90 -62 0 -62 0 37 68 c20 38 109 200 197 360
l160 293 69 -3 69 -3 164 -295z"/>
<path d="M10131 17464 c-75 -38 -105 -86 -109 -178 -4 -91 22 -146 92 -193 41
-28 57 -33 106 -33 124 0 220 87 221 201 2 173 -158 278 -310 203z"/>
<path d="M10102 15102 c-68 -27 -127 -84 -164 -159 -28 -58 -32 -77 -32 -142
0 -103 30 -177 98 -246 155 -158 424 -112 526 90 21 43 25 64 25 146 0 88 -2
100 -34 162 -38 75 -76 109 -160 144 -70 28 -193 31 -259 5z m195 -179 c42
-28 83 -92 83 -130 0 -119 -153 -199 -241 -126 -35 30 -68 94 -69 134 0 34 36
87 79 116 41 28 110 31 148 6z"/>
<path d="M12214 9181 c-37 -23 -64 -76 -64 -126 0 -47 49 -100 103 -110 70
-14 157 57 157 128 0 39 -34 94 -70 112 -39 20 -89 19 -126 -4z"/>
<path d="M7442 4596 c-51 -96 -92 -177 -92 -180 0 -3 83 -6 185 -6 102 0 185
3 185 6 0 6 -126 247 -166 317 l-21 38 -91 -175z"/>
<path d="M14292 4588 l-91 -173 95 -3 c52 -1 136 -1 188 0 l95 3 -92 173 c-50
94 -94 172 -98 172 -3 0 -47 -78 -97 -172z"/>
</g>
</svg>
