<?xml version="1.0" encoding="utf-8"?>
<svg xmlns="http://www.w3.org/2000/svg" xmlns:xlink="http://www.w3.org/1999/xlink" style="margin: auto; background: none; display: block; shape-rendering: auto;" width="27px" height="27px" viewBox="0 0 100 100" preserveAspectRatio="xMidYMid">
<g transform="rotate(0 50 50)">
  <rect x="47.5" y="22" rx="2.5" ry="2.56" width="5" height="16" fill="#6a6a6a">
    <animate attributeName="opacity" values="1;0" keyTimes="0;1" dur="0.7874015748031495s" begin="-0.7217847769028871s" repeatCount="indefinite"></animate>
  </rect>
</g><g transform="rotate(30 50 50)">
  <rect x="47.5" y="22" rx="2.5" ry="2.56" width="5" height="16" fill="#6a6a6a">
    <animate attributeName="opacity" values="1;0" keyTimes="0;1" dur="0.7874015748031495s" begin="-0.6561679790026247s" repeatCount="indefinite"></animate>
  </rect>
</g><g transform="rotate(60 50 50)">
  <rect x="47.5" y="22" rx="2.5" ry="2.56" width="5" height="16" fill="#6a6a6a">
    <animate attributeName="opacity" values="1;0" keyTimes="0;1" dur="0.7874015748031495s" begin="-0.5905511811023622s" repeatCount="indefinite"></animate>
  </rect>
</g><g transform="rotate(90 50 50)">
  <rect x="47.5" y="22" rx="2.5" ry="2.56" width="5" height="16" fill="#6a6a6a">
    <animate attributeName="opacity" values="1;0" keyTimes="0;1" dur="0.7874015748031495s" begin="-0.5249343832020997s" repeatCount="indefinite"></animate>
  </rect>
</g><g transform="rotate(120 50 50)">
  <rect x="47.5" y="22" rx="2.5" ry="2.56" width="5" height="16" fill="#6a6a6a">
    <animate attributeName="opacity" values="1;0" keyTimes="0;1" dur="0.7874015748031495s" begin="-0.45931758530183725s" repeatCount="indefinite"></animate>
  </rect>
</g><g transform="rotate(150 50 50)">
  <rect x="47.5" y="22" rx="2.5" ry="2.56" width="5" height="16" fill="#6a6a6a">
    <animate attributeName="opacity" values="1;0" keyTimes="0;1" dur="0.7874015748031495s" begin="-0.39370078740157477s" repeatCount="indefinite"></animate>
  </rect>
</g><g transform="rotate(180 50 50)">
  <rect x="47.5" y="22" rx="2.5" ry="2.56" width="5" height="16" fill="#6a6a6a">
    <animate attributeName="opacity" values="1;0" keyTimes="0;1" dur="0.7874015748031495s" begin="-0.32808398950131235s" repeatCount="indefinite"></animate>
  </rect>
</g><g transform="rotate(210 50 50)">
  <rect x="47.5" y="22" rx="2.5" ry="2.56" width="5" height="16" fill="#6a6a6a">
    <animate attributeName="opacity" values="1;0" keyTimes="0;1" dur="0.7874015748031495s" begin="-0.26246719160104987s" repeatCount="indefinite"></animate>
  </rect>
</g><g transform="rotate(240 50 50)">
  <rect x="47.5" y="22" rx="2.5" ry="2.56" width="5" height="16" fill="#6a6a6a">
    <animate attributeName="opacity" values="1;0" keyTimes="0;1" dur="0.7874015748031495s" begin="-0.19685039370078738s" repeatCount="indefinite"></animate>
  </rect>
</g><g transform="rotate(270 50 50)">
  <rect x="47.5" y="22" rx="2.5" ry="2.56" width="5" height="16" fill="#6a6a6a">
    <animate attributeName="opacity" values="1;0" keyTimes="0;1" dur="0.7874015748031495s" begin="-0.13123359580052493s" repeatCount="indefinite"></animate>
  </rect>
</g><g transform="rotate(300 50 50)">
  <rect x="47.5" y="22" rx="2.5" ry="2.56" width="5" height="16" fill="#6a6a6a">
    <animate attributeName="opacity" values="1;0" keyTimes="0;1" dur="0.7874015748031495s" begin="-0.06561679790026247s" repeatCount="indefinite"></animate>
  </rect>
</g><g transform="rotate(330 50 50)">
  <rect x="47.5" y="22" rx="2.5" ry="2.56" width="5" height="16" fill="#6a6a6a">
    <animate attributeName="opacity" values="1;0" keyTimes="0;1" dur="0.7874015748031495s" begin="0s" repeatCount="indefinite"></animate>
  </rect>
</g>
<!-- [ldio] generated by https://loading.io/ --></svg>