<svg xmlns="http://www.w3.org/2000/svg" width="1256" height="261" viewBox="0 0 1256 261">
<g>
<path d="M 381.38,213.57 L 383.84,213.97 L 385.04,214.27 L 387.15,214.97 L 388.16,215.34 L 389.88,216.20 L 390.70,216.65 L 392.06,217.69 L 392.70,218.23 L 393.72,219.48 L 394.18,220.13 L 394.87,221.61 L 395.18,222.38 L 395.55,224.12 L 395.71,225.03 L 395.79,227.05 L 395.61,230.44 L 395.39,232.61 L 394.40,236.65 L 393.82,238.61 L 392.14,242.19 L 391.22,243.92 L 388.88,246.99 L 384.66,250.96 L 382.60,252.52 L 377.79,255.42 L 376.58,256.11 L 374.17,257.35 L 372.97,257.95 L 370.71,258.96 L 369.62,259.43 L 367.66,260.15 L 366.73,260.46 L 365.21,260.82 L 364.52,260.95 L 363.59,260.89 L 363.21,260.80 L 363.03,260.25 L 363.03,260.15 L 363.57,259.70 L 363.91,259.45 L 365.02,258.76 L 365.63,258.40 L 367.16,257.57 L 369.78,256.25 L 371.97,255.18 L 376.26,252.62 L 378.35,251.29 L 382.11,248.43 L 383.00,247.72 L 384.62,246.29 L 385.39,245.58 L 386.73,244.19 L 387.36,243.51 L 388.38,242.21 L 389.49,240.39 L 390.05,239.20 L 390.90,236.10 L 391.27,234.48 L 391.70,231.06 L 391.85,229.38 L 391.79,226.37 L 391.74,225.68 L 391.53,224.49 L 391.06,223.11 L 390.69,222.43 L 389.71,221.21 L 389.18,220.64 L 387.91,219.65 L 387.24,219.19 L 385.74,218.45 L 384.97,218.11 L 383.29,217.62 L 382.44,217.41 L 380.65,217.19 L 379.74,217.12 L 377.88,217.18 L 376.95,217.25 L 375.09,217.61 L 372.35,218.50 L 371.78,218.73 L 370.87,219.11 L 370.45,219.29 L 369.77,219.55 L 369.16,219.78 L 368.49,219.85 L 368.23,219.82 L 368.05,219.36 L 368.00,218.03 L 368.00,217.64 L 368.43,216.89 L 368.70,216.53 L 369.60,215.86 L 370.11,215.53 L 371.38,214.96 L 372.05,214.69 L 373.60,214.25 L 375.19,213.84 L 378.75,213.51 L 379.64,213.48 M 554.37,215.09 L 555.00,215.34 L 555.00,215.40 L 554.76,216.05 L 554.61,216.45 L 554.12,217.64 L 553.85,218.29 L 553.16,219.87 L 552.00,222.50 L 551.59,223.42 L 550.84,225.12 L 550.48,225.94 L 549.88,227.32 L 549.61,227.95 L 549.24,228.86 L 549.00,229.51 L 549.00,229.56 L 549.24,229.69 L 549.39,229.77 L 549.88,229.94 L 552.01,230.50 L 552.49,230.61 L 553.23,230.85 L 553.56,230.98 L 554.02,231.25 L 554.21,231.39 L 554.39,231.66 L 554.44,231.80 L 554.36,232.07 L 554.20,232.33 L 553.16,232.73 L 550.56,233.00 L 549.91,233.00 L 548.92,233.10 L 548.46,233.18 L 547.79,233.47 L 547.49,233.64 L 547.06,234.16 L 546.59,235.25 L 546.08,237.05 L 545.26,240.09 L 544.88,241.53 L 544.33,243.93 L 544.09,245.06 L 543.82,246.93 L 543.73,247.80 L 543.75,249.23 L 543.80,249.89 L 544.12,250.98 L 544.32,251.49 L 544.94,252.34 L 545.29,252.75 L 546.23,253.46 L 547.99,254.49 L 548.84,254.93 L 549.99,255.90 L 550.21,256.13 L 550.46,256.55 L 550.47,257.04 L 550.19,257.50 L 549.22,257.92 L 548.68,258.05 L 547.36,257.84 L 546.67,257.66 L 545.16,256.87 L 544.41,256.40 L 542.92,255.08 L 542.07,254.22 L 540.93,252.30 L 540.45,251.28 L 540.03,248.91 L 539.92,247.66 L 540.23,244.70 L 540.35,243.91 L 540.72,242.20 L 541.48,239.41 L 541.71,238.66 L 542.02,237.35 L 542.16,236.74 L 542.29,235.74 L 542.34,235.28 L 542.28,234.65 L 541.98,234.17 L 541.58,234.03 L 541.16,233.46 L 541.01,233.15 L 541.05,232.42 L 541.12,232.06 L 541.57,231.42 L 542.66,230.82 L 542.90,230.78 L 543.56,230.14 L 543.91,229.75 L 544.74,228.51 L 545.16,227.82 L 546.08,226.07 L 547.50,223.00 L 548.10,221.58 L 549.12,219.42 L 549.60,218.44 L 550.46,217.06 L 550.87,216.45 L 551.65,215.71 L 552.84,215.18 L 553.43,215.09 M 714.43,230.71 L 715.30,230.75 L 716.90,231.02 L 717.67,231.20 L 718.99,231.73 L 719.60,232.02 L 720.52,232.80 L 721.35,234.24 L 721.52,234.87 L 721.48,236.13 L 721.41,236.75 L 720.93,237.98 L 720.64,238.58 L 719.76,239.74 L 719.27,240.31 L 718.03,241.37 L 717.37,241.88 L 715.82,242.81 L 715.00,243.25 L 713.18,244.01 L 712.23,244.37 L 710.17,244.93 L 706.87,245.51 L 706.00,245.62 L 704.55,245.86 L 703.88,246.00 L 702.82,246.32 L 702.33,246.50 L 701.65,246.93 L 701.36,247.16 L 701.05,247.72 L 700.94,248.01 L 700.99,248.72 L 701.06,249.09 L 701.47,249.96 L 701.72,250.42 L 702.47,251.48 L 703.98,253.32 L 704.66,254.10 L 705.56,255.36 L 705.94,255.94 L 706.24,256.82 L 706.31,257.21 L 706.00,257.70 L 704.85,258.00 L 704.74,258.00 L 704.29,257.78 L 704.03,257.64 L 703.37,257.19 L 702.66,256.69 L 700.95,255.25 L 699.89,254.30 L 698.43,252.07 L 697.81,250.91 L 697.24,248.32 L 697.07,246.99 L 697.40,244.13 L 698.93,239.65 L 699.52,238.42 L 701.25,235.97 L 701.69,235.40 L 702.57,234.44 L 703.78,233.41 L 704.54,232.91 L 706.24,232.12 L 707.11,231.76 L 708.94,231.25 L 709.86,231.02 L 711.72,230.78 L 712.64,230.69 M 766.12,231.26 L 767.20,231.43 L 768.83,232.02 L 769.55,232.37 L 770.46,233.30 L 771.00,235.10 L 771.00,235.77 L 770.74,237.03 L 770.56,237.65 L 769.96,238.81 L 769.62,239.38 L 768.70,240.42 L 768.19,240.93 L 766.96,241.86 L 766.30,242.31 L 764.77,243.10 L 763.97,243.48 L 762.16,244.13 L 761.22,244.44 L 759.14,244.94 L 755.74,245.51 L 754.95,245.61 L 753.51,245.87 L 752.82,246.00 L 751.69,246.29 L 751.17,246.44 L 750.45,246.75 L 750.00,247.16 L 750.00,247.66 L 750.52,249.08 L 750.84,249.83 L 751.80,251.45 L 752.31,252.24 L 753.44,253.64 L 755.04,255.02 L 755.57,255.31 L 756.18,255.97 L 756.41,256.30 L 756.44,256.94 L 756.39,257.24 L 755.87,257.69 L 754.50,258.00 L 754.31,258.00 L 753.75,257.82 L 753.46,257.71 L 752.75,257.34 L 752.03,256.93 L 750.50,255.75 L 749.75,255.10 L 748.56,253.37 L 748.02,252.44 L 747.28,250.30 L 746.98,249.19 L 746.75,246.83 L 747.05,243.28 L 747.25,242.33 L 747.85,240.58 L 748.18,239.73 L 749.02,238.18 L 749.47,237.43 L 750.53,236.08 L 751.09,235.44 L 752.36,234.31 L 753.02,233.78 L 754.49,232.90 L 755.24,232.49 L 756.87,231.86 L 757.71,231.58 L 759.49,231.22 L 762.32,231.00 L 763.76,231.00 M 840.16,231.06 L 840.80,231.10 L 841.89,231.24 L 842.93,231.40 L 844.34,232.05 L 844.94,232.44 L 845.62,233.60 L 846.00,236.03 L 846.00,236.64 L 845.75,237.80 L 845.58,238.36 L 845.00,239.41 L 844.67,239.92 L 843.77,240.86 L 843.28,241.32 L 842.07,242.15 L 841.42,242.55 L 839.90,243.27 L 839.10,243.61 L 837.27,244.20 L 836.32,244.49 L 834.20,244.96 L 830.68,245.52 L 829.90,245.62 L 828.48,245.87 L 827.80,246.00 L 826.67,246.30 L 826.15,246.45 L 825.45,246.75 L 825.00,247.16 L 825.00,247.66 L 825.52,249.08 L 825.84,249.83 L 826.80,251.45 L 827.31,252.24 L 828.44,253.64 L 830.04,255.02 L 830.57,255.31 L 831.18,255.97 L 831.41,256.30 L 831.44,256.94 L 831.39,257.24 L 830.87,257.69 L 829.50,258.00 L 829.31,258.00 L 828.74,257.81 L 828.44,257.70 L 827.72,257.31 L 826.97,256.88 L 825.38,255.65 L 824.91,255.25 L 824.11,254.18 L 823.74,253.60 L 823.13,252.26 L 822.58,250.86 L 822.09,247.58 L 821.95,245.91 L 822.33,242.58 L 822.48,241.78 L 822.96,240.27 L 823.94,238.24 L 824.71,237.01 L 826.53,235.04 L 827.49,234.13 L 829.71,232.78 L 830.87,232.18 L 833.53,231.45 L 838.05,231.00 L 838.82,231.00 M 417.09,231.06 L 417.74,231.09 L 418.85,231.24 L 419.90,231.40 L 421.32,232.05 L 421.94,232.43 L 422.62,233.59 L 423.00,236.03 L 423.00,236.64 L 422.75,237.80 L 422.58,238.36 L 422.00,239.41 L 421.67,239.92 L 420.77,240.86 L 420.28,241.32 L 419.07,242.15 L 418.42,242.55 L 416.90,243.27 L 416.10,243.61 L 414.27,244.20 L 413.32,244.49 L 411.20,244.96 L 407.68,245.52 L 406.90,245.62 L 405.48,245.83 L 404.80,245.93 L 403.67,246.14 L 403.15,246.25 L 402.45,246.43 L 402.00,246.65 L 402.00,247.13 L 402.53,248.64 L 402.87,249.44 L 403.84,251.20 L 404.35,252.06 L 405.46,253.56 L 406.94,254.97 L 407.52,255.28 L 408.26,256.05 L 408.47,257.05 L 408.28,257.35 L 407.73,257.72 L 407.42,257.87 L 406.66,257.93 L 406.26,257.91 L 405.32,257.66 L 404.83,257.49 L 403.75,256.92 L 403.18,256.59 L 402.17,255.64 L 401.70,255.12 L 400.90,253.86 L 400.53,253.20 L 399.96,251.71 L 399.70,250.94 L 399.36,249.29 L 399.08,247.61 L 399.26,244.05 L 399.37,243.17 L 399.80,241.46 L 400.75,239.02 L 401.42,237.69 L 403.15,235.52 L 404.08,234.52 L 406.32,233.01 L 407.51,232.34 L 410.26,231.50 L 414.95,231.00 L 415.73,231.00 M 464.00,214.93 L 464.60,215.26 L 464.69,215.36 L 464.66,216.00 L 464.61,216.38 L 464.31,217.49 L 464.13,218.08 L 463.62,219.51 L 462.65,221.85 L 462.28,222.66 L 461.62,224.23 L 461.30,224.98 L 460.78,226.33 L 460.54,226.95 L 460.21,227.92 L 460.00,228.80 L 460.00,228.94 L 460.24,229.25 L 460.39,229.41 L 460.88,229.73 L 463.01,230.50 L 463.50,230.61 L 464.25,230.86 L 464.58,230.98 L 465.04,231.25 L 465.23,231.39 L 465.40,231.67 L 465.45,231.81 L 465.35,232.07 L 465.19,232.33 L 464.10,232.73 L 461.42,233.00 L 460.46,233.00 L 459.06,233.32 L 458.43,233.56 L 457.45,234.69 L 457.22,235.04 L 456.79,235.96 L 456.58,236.47 L 456.16,237.74 L 455.95,238.43 L 455.51,240.10 L 454.79,243.12 L 454.43,244.65 L 454.18,247.21 L 454.13,248.41 L 454.50,250.39 L 454.76,251.32 L 455.77,252.79 L 458.05,254.52 L 458.57,254.80 L 459.36,255.34 L 459.71,255.61 L 460.15,256.11 L 460.34,256.36 L 460.46,256.80 L 460.49,257.01 L 460.33,257.36 L 460.21,257.52 L 459.78,257.73 L 459.53,257.82 L 458.85,257.88 L 458.48,257.88 L 457.58,257.75 L 457.10,257.65 L 456.00,257.29 L 455.32,257.04 L 454.16,256.39 L 453.60,256.04 L 452.68,255.17 L 452.25,254.71 L 451.57,253.64 L 451.26,253.07 L 450.82,251.77 L 450.63,251.10 L 450.43,249.58 L 450.36,248.79 L 450.41,247.04 L 450.46,246.14 L 450.74,244.17 L 451.44,240.94 L 451.72,239.85 L 452.10,238.04 L 452.27,237.21 L 452.41,235.90 L 452.46,235.30 L 452.38,234.44 L 452.00,233.60 L 451.81,233.41 L 451.65,233.03 L 451.60,232.83 L 451.71,232.41 L 451.80,232.19 L 452.19,231.72 L 453.10,230.93 L 453.39,230.70 L 454.15,229.80 L 454.54,229.28 L 455.41,227.92 L 457.94,222.97 L 458.59,221.44 L 459.87,218.98 L 460.50,217.86 L 461.70,216.28 L 462.28,215.61 L 463.31,215.00 L 463.56,214.91 M 442.96,227.40 L 443.41,227.51 L 444.15,227.84 L 444.96,228.46 L 445.43,229.01 L 445.74,229.93 L 445.81,230.35 L 445.37,230.95 L 445.06,231.21 L 443.93,231.44 L 441.54,231.31 L 440.54,231.15 L 438.53,231.11 L 437.54,231.12 L 435.78,231.39 L 434.96,231.55 L 433.78,232.06 L 433.00,233.03 L 433.00,233.17 L 433.43,233.69 L 433.71,233.99 L 434.62,234.77 L 435.11,235.18 L 436.36,236.10 L 438.50,237.54 L 439.40,238.12 L 440.88,239.20 L 441.56,239.73 L 442.60,240.74 L 443.07,241.24 L 443.69,242.22 L 443.94,242.71 L 444.13,243.71 L 444.17,244.21 L 443.94,245.25 L 443.77,245.78 L 443.12,246.91 L 442.74,247.49 L 441.67,248.74 L 439.60,250.80 L 438.33,251.97 L 435.26,253.96 L 433.70,254.87 L 430.54,256.15 L 429.77,256.42 L 428.32,256.78 L 427.62,256.93 L 426.36,257.05 L 425.76,257.07 L 424.77,256.91 L 424.31,256.80 L 423.67,256.33 L 423.32,255.99 L 423.06,255.41 L 422.99,255.13 L 423.32,254.67 L 423.56,254.44 L 424.52,254.06 L 426.72,253.53 L 427.91,253.30 L 430.05,252.68 L 431.09,252.33 L 432.97,251.45 L 433.88,250.97 L 435.55,249.78 L 437.88,247.65 L 438.61,246.86 L 439.41,245.51 L 439.69,244.86 L 439.52,243.64 L 439.31,243.03 L 438.11,241.75 L 437.75,241.42 L 436.81,240.71 L 435.09,239.56 L 434.24,239.02 L 432.83,237.97 L 432.17,237.44 L 431.14,236.42 L 430.67,235.91 L 430.02,234.91 L 429.75,234.42 L 429.48,233.47 L 429.39,233.00 L 429.51,232.09 L 429.62,231.64 L 430.12,230.79 L 430.42,230.37 L 431.30,229.58 L 433.07,228.46 L 433.98,227.99 L 436.25,227.40 L 437.41,227.16 L 439.80,227.05 L 440.96,227.04 M 640.96,227.40 L 641.41,227.51 L 642.15,227.84 L 642.96,228.46 L 643.43,229.01 L 643.74,229.93 L 643.81,230.35 L 643.37,230.95 L 643.06,231.21 L 641.93,231.44 L 639.54,231.31 L 638.55,231.15 L 636.54,231.11 L 635.56,231.13 L 633.79,231.39 L 632.97,231.55 L 631.78,232.05 L 631.00,233.00 L 631.00,233.14 L 631.34,233.59 L 631.55,233.85 L 632.25,234.48 L 635.25,236.68 L 636.26,237.32 L 637.92,238.51 L 638.70,239.09 L 639.91,240.18 L 640.46,240.72 L 641.23,241.76 L 641.56,242.28 L 641.90,243.31 L 642.01,243.82 L 641.92,244.87 L 641.82,245.40 L 641.31,246.51 L 641.00,247.08 L 640.08,248.29 L 638.25,250.25 L 637.04,251.44 L 633.92,253.50 L 632.30,254.46 L 628.95,255.88 L 628.13,256.18 L 626.59,256.61 L 625.83,256.79 L 624.49,256.96 L 623.85,257.01 L 622.80,256.89 L 622.32,256.79 L 621.67,256.33 L 621.40,256.06 L 621.11,255.51 L 621.01,255.24 L 621.05,254.76 L 621.10,254.54 L 621.44,254.21 L 622.25,253.99 L 622.94,253.99 L 624.50,253.71 L 625.31,253.53 L 627.02,252.96 L 628.76,252.32 L 632.18,250.45 L 632.99,249.95 L 634.46,248.91 L 635.16,248.38 L 636.31,247.33 L 636.83,246.80 L 637.55,245.80 L 638.00,244.44 L 638.00,244.26 L 637.65,243.68 L 637.42,243.36 L 636.68,242.59 L 633.51,240.01 L 632.61,239.39 L 631.10,238.20 L 630.39,237.61 L 629.28,236.50 L 628.78,235.96 L 628.08,234.92 L 627.77,234.41 L 627.47,233.45 L 627.37,232.97 L 627.47,232.07 L 627.57,231.63 L 628.07,230.78 L 628.37,230.37 L 629.27,229.58 L 631.07,228.46 L 631.98,227.99 L 634.25,227.40 L 635.41,227.16 L 637.80,227.05 L 638.96,227.04 M 377.06,220.20 L 377.28,220.26 L 377.61,220.56 L 377.90,220.90 L 377.99,222.10 L 377.96,222.76 L 377.42,224.41 L 375.93,227.10 L 375.36,227.90 L 374.18,229.97 L 373.58,231.06 L 372.40,233.56 L 371.23,236.13 L 369.20,241.69 L 368.75,243.04 L 368.00,245.59 L 367.66,246.81 L 367.19,248.95 L 367.01,249.95 L 366.90,251.47 L 367.23,252.83 L 367.50,253.10 L 367.73,253.85 L 367.55,254.91 L 367.31,255.31 L 366.62,255.77 L 366.25,255.94 L 365.47,255.95 L 365.08,255.90 L 364.38,255.48 L 364.05,255.22 L 363.60,254.41 L 363.51,254.16 L 363.46,253.38 L 363.46,252.95 L 363.58,251.84 L 363.66,251.24 L 363.94,249.84 L 364.09,249.12 L 364.50,247.49 L 364.93,245.82 L 366.11,242.02 L 366.73,240.07 L 368.17,236.06 L 368.91,234.06 L 370.46,230.25 L 371.23,228.41 L 372.73,225.24 L 373.09,224.51 L 373.78,223.24 L 374.12,222.64 L 374.74,221.67 L 375.04,221.23 L 375.58,220.63 L 376.26,220.19 L 376.57,220.13 M 872.50,232.33 L 872.96,232.37 L 873.73,232.62 L 874.68,233.25 L 875.05,233.62 L 875.50,234.25 L 875.68,234.58 L 875.78,235.36 L 875.78,235.80 L 875.52,237.03 L 874.74,239.68 L 874.52,240.34 L 874.08,241.96 L 873.86,242.81 L 873.44,244.62 L 873.24,245.54 L 872.89,247.33 L 872.50,249.75 L 872.34,251.00 L 871.99,252.78 L 871.81,253.56 L 871.40,254.48 L 871.18,254.83 L 870.65,254.95 L 870.37,254.92 L 869.67,254.33 L 869.53,254.20 L 869.33,253.68 L 869.24,253.38 L 869.12,252.58 L 869.02,251.71 L 869.05,249.38 L 869.10,248.15 L 869.42,245.46 L 870.20,241.55 L 870.53,240.31 L 870.82,238.16 L 870.87,237.69 L 870.84,236.96 L 870.65,236.31 L 870.48,236.15 L 869.86,236.11 L 869.50,236.14 L 868.53,236.45 L 868.01,236.64 L 866.75,237.26 L 866.09,237.60 L 864.61,238.48 L 863.08,239.42 L 859.62,241.95 L 854.32,246.39 L 847.67,252.48 L 848.24,246.99 L 848.42,245.27 L 849.12,241.90 L 849.51,240.26 L 850.50,237.41 L 850.76,236.75 L 851.30,235.61 L 851.58,235.07 L 852.13,234.22 L 852.40,233.83 L 852.95,233.32 L 853.72,233.00 L 854.11,233.00 L 854.58,233.59 L 854.76,233.97 L 854.82,235.19 L 854.80,235.86 L 854.46,237.52 L 853.51,240.31 L 853.37,240.63 L 853.52,240.90 L 853.66,240.98 L 854.40,240.74 L 854.85,240.56 L 856.22,239.80 L 859.04,238.05 L 860.09,237.38 L 862.02,236.21 L 862.97,235.65 L 864.70,234.72 L 865.55,234.28 L 867.09,233.59 L 867.83,233.27 L 869.18,232.81 L 869.83,232.62 L 870.98,232.39 L 871.53,232.31 M 504.46,232.35 L 504.95,232.53 L 505.56,233.50 L 505.80,234.07 L 505.93,235.78 L 505.93,236.72 L 505.57,239.11 L 504.49,243.41 L 504.08,244.76 L 503.44,247.69 L 503.30,248.39 L 503.12,249.63 L 503.00,251.10 L 503.00,251.99 L 502.71,253.29 L 502.52,253.85 L 501.98,254.42 L 501.70,254.61 L 501.06,254.35 L 500.74,254.11 L 500.17,252.93 L 499.98,252.41 L 499.82,250.98 L 499.77,250.19 L 499.92,248.14 L 500.02,247.03 L 500.48,244.28 L 501.51,239.25 L 501.66,238.61 L 501.81,237.65 L 501.85,237.23 L 501.79,236.66 L 501.73,236.41 L 501.43,236.15 L 500.71,236.00 L 500.40,236.00 L 499.32,236.41 L 498.71,236.68 L 497.15,237.54 L 496.32,238.01 L 494.45,239.19 L 493.50,239.80 L 491.49,241.18 L 489.49,242.59 L 485.80,245.49 L 484.97,246.18 L 483.59,247.44 L 482.15,249.01 L 481.74,249.56 L 481.02,250.38 L 480.69,250.74 L 480.11,251.18 L 479.85,251.35 L 479.42,251.41 L 479.23,251.39 L 478.95,251.09 L 478.84,250.89 L 478.72,250.22 L 478.68,249.85 L 478.72,248.83 L 478.76,248.27 L 478.97,246.91 L 479.46,244.48 L 479.72,243.40 L 480.19,241.49 L 480.42,240.59 L 480.86,239.02 L 481.08,238.28 L 481.49,237.03 L 481.69,236.44 L 482.09,235.48 L 482.49,234.59 L 483.29,233.57 L 484.59,233.00 L 485.01,233.00 L 485.52,233.25 L 485.72,233.44 L 485.81,234.24 L 485.80,234.73 L 485.46,236.30 L 485.35,236.75 L 485.04,237.83 L 484.46,239.76 L 484.30,240.29 L 484.21,240.92 L 484.22,241.15 L 484.64,241.16 L 484.78,241.13 L 485.21,240.92 L 485.44,240.80 L 486.07,240.43 L 486.41,240.22 L 487.26,239.66 L 488.83,238.62 L 490.35,237.59 L 493.55,235.79 L 495.13,234.95 L 498.14,233.64 L 499.58,233.06 L 501.99,232.41 L 502.53,232.29 L 503.43,232.22 M 619.23,232.57 L 619.77,232.75 L 620.47,233.54 L 620.75,234.02 L 620.93,235.42 L 620.95,236.21 L 620.61,238.24 L 619.50,242.00 L 619.09,243.17 L 618.44,246.12 L 618.30,246.85 L 618.12,248.25 L 618.00,250.07 L 618.00,251.11 L 617.81,252.65 L 617.69,253.34 L 617.26,254.15 L 617.02,254.47 L 616.37,254.53 L 616.02,254.47 L 615.16,253.76 L 614.77,253.37 L 614.30,252.16 L 614.12,251.49 L 614.06,249.72 L 614.09,248.78 L 614.45,246.49 L 615.45,242.49 L 615.66,241.80 L 615.98,240.61 L 616.12,240.04 L 616.31,239.10 L 616.46,238.21 L 616.33,237.11 L 616.19,236.66 L 615.47,236.33 L 613.67,236.58 L 613.24,236.71 L 612.06,237.28 L 611.43,237.61 L 609.93,238.51 L 608.38,239.48 L 604.86,241.99 L 603.11,243.29 L 599.97,245.89 L 599.25,246.51 L 598.07,247.64 L 596.80,249.06 L 596.42,249.58 L 595.74,250.39 L 595.42,250.76 L 594.87,251.30 L 594.61,251.53 L 594.18,251.77 L 593.97,251.86 L 593.66,251.83 L 593.51,251.77 L 593.31,251.45 L 593.22,251.25 L 593.14,250.64 L 593.11,250.30 L 593.14,249.41 L 593.32,247.75 L 593.59,245.79 L 594.40,242.14 L 594.84,240.39 L 595.88,237.43 L 596.15,236.76 L 596.70,235.60 L 596.98,235.06 L 597.54,234.20 L 597.82,233.82 L 598.37,233.31 L 599.15,233.00 L 599.71,233.00 L 600.42,233.18 L 600.71,233.32 L 600.89,233.93 L 600.92,234.31 L 600.58,235.56 L 599.50,238.35 L 599.24,238.97 L 598.82,240.01 L 598.63,240.49 L 598.37,241.26 L 598.26,241.60 L 598.15,242.10 L 598.11,242.32 L 598.16,242.56 L 598.20,242.65 L 598.42,242.65 L 598.55,242.62 L 598.93,242.38 L 599.15,242.23 L 599.71,241.78 L 600.75,240.85 L 602.22,239.50 L 605.61,237.11 L 607.33,236.00 L 610.83,234.25 L 611.69,233.87 L 613.34,233.26 L 614.15,232.99 L 615.64,232.62 L 616.36,232.47 L 617.64,232.38 M 692.33,232.67 L 692.75,232.84 L 693.34,233.44 L 693.59,233.79 L 693.85,234.75 L 693.94,235.28 L 693.88,236.61 L 693.80,237.32 L 693.42,239.02 L 692.50,242.00 L 692.09,243.17 L 691.44,246.12 L 691.30,246.85 L 691.12,248.25 L 691.00,250.07 L 691.00,251.11 L 690.81,252.65 L 690.69,253.34 L 690.26,254.15 L 690.02,254.47 L 689.37,254.53 L 689.02,254.47 L 688.16,253.76 L 687.77,253.37 L 687.30,252.16 L 687.12,251.48 L 687.06,249.71 L 687.09,248.76 L 687.46,246.46 L 688.47,242.43 L 688.68,241.72 L 688.99,240.41 L 689.13,239.78 L 689.28,238.68 L 689.33,238.16 L 689.30,237.38 L 689.06,236.66 L 688.88,236.48 L 688.17,236.45 L 687.76,236.48 L 686.65,236.83 L 686.05,237.05 L 684.64,237.72 L 683.91,238.09 L 682.30,239.03 L 680.64,240.03 L 677.11,242.60 L 672.22,246.84 L 671.48,247.58 L 670.09,248.87 L 669.42,249.48 L 668.26,250.45 L 667.73,250.88 L 666.93,251.42 L 666.28,251.62 L 666.19,251.52 L 666.12,250.93 L 666.11,250.58 L 666.18,249.57 L 666.24,249.02 L 666.44,247.69 L 666.55,247.00 L 666.86,245.48 L 667.18,243.93 L 668.02,240.70 L 669.40,236.59 L 669.81,235.60 L 670.91,234.06 L 671.19,233.73 L 671.73,233.28 L 672.45,233.00 L 672.93,233.00 L 673.54,233.25 L 673.79,233.42 L 673.91,234.12 L 673.92,234.55 L 673.56,235.86 L 672.50,238.65 L 672.24,239.27 L 671.84,240.27 L 671.65,240.74 L 671.39,241.47 L 671.27,241.80 L 671.16,242.27 L 671.12,242.47 L 671.17,242.68 L 671.21,242.75 L 671.42,242.73 L 671.55,242.68 L 671.93,242.43 L 672.14,242.27 L 672.70,241.80 L 673.75,240.87 L 674.69,240.01 L 676.61,238.50 L 677.58,237.77 L 679.59,236.50 L 680.61,235.89 L 682.77,234.82 L 686.24,233.42 L 687.18,233.09 L 688.79,232.67 L 689.55,232.50 L 690.82,232.41 L 691.41,232.41 M 914.68,212.27 L 915.06,212.46 L 915.40,213.08 L 915.49,213.43 L 915.24,214.37 L 914.20,216.13 L 913.80,216.66 L 912.89,218.23 L 912.42,219.08 L 911.42,221.15 L 910.41,223.32 L 908.40,228.38 L 907.93,229.64 L 907.07,232.13 L 906.66,233.35 L 905.99,235.60 L 905.68,236.68 L 905.26,238.52 L 905.00,240.62 L 905.00,241.20 L 904.73,242.22 L 904.55,242.69 L 904.04,243.39 L 903.76,243.68 L 903.14,243.91 L 902.23,243.56 L 902.14,243.48 L 902.00,243.05 L 901.94,242.81 L 901.85,242.13 L 901.82,239.56 L 901.90,238.47 L 901.56,236.65 L 901.31,235.81 L 900.42,234.56 L 899.91,234.02 L 898.55,233.46 L 896.11,233.50 L 894.95,233.78 L 892.41,234.88 L 891.13,235.50 L 888.66,237.05 L 887.46,237.86 L 885.47,239.58 L 885.02,240.01 L 884.28,240.85 L 883.48,242.05 L 882.95,243.07 L 882.59,244.85 L 882.52,245.69 L 882.99,247.11 L 883.32,247.76 L 884.51,248.78 L 885.18,249.23 L 886.96,249.82 L 887.92,250.06 L 890.19,250.19 L 891.37,250.20 L 894.01,249.85 L 895.36,249.61 L 898.26,248.75 L 902.76,246.85 L 903.58,246.44 L 905.01,245.77 L 905.69,245.46 L 906.85,245.00 L 907.39,244.80 L 908.26,244.55 L 908.66,244.45 L 909.24,244.41 L 909.49,244.41 L 909.77,244.58 L 909.87,244.69 L 909.83,245.06 L 909.78,245.28 L 909.43,245.86 L 908.53,246.97 L 907.81,247.77 L 905.70,249.26 L 904.55,249.98 L 901.80,251.23 L 900.37,251.82 L 897.25,252.72 L 892.44,253.56 L 891.22,253.67 L 889.33,253.76 L 888.45,253.78 L 887.03,253.63 L 886.36,253.52 L 885.16,253.10 L 884.56,252.85 L 883.31,252.12 L 882.51,251.61 L 881.19,250.59 L 880.58,250.07 L 879.62,249.01 L 879.19,248.48 L 878.61,247.38 L 878.36,246.83 L 878.14,245.68 L 878.08,245.10 L 878.22,243.89 L 878.34,243.27 L 878.85,241.99 L 879.16,241.34 L 880.03,239.98 L 881.75,237.84 L 882.93,236.53 L 885.54,234.38 L 886.87,233.38 L 889.71,231.89 L 891.15,231.23 L 894.11,230.45 L 898.56,230.13 L 899.78,230.20 L 901.95,230.04 L 902.43,229.98 L 903.18,229.80 L 903.88,229.45 L 904.00,229.32 L 904.38,228.65 L 904.58,228.25 L 905.09,227.16 L 906.78,223.00 L 907.19,221.87 L 907.93,219.93 L 908.28,219.02 L 908.90,217.47 L 909.20,216.74 L 909.74,215.55 L 910.01,214.99 L 910.48,214.11 L 910.95,213.30 L 911.79,212.45 L 913.10,212.00 L 913.77,212.00 M 475.38,234.38 L 475.61,234.65 L 475.57,235.72 L 475.52,236.03 L 475.28,236.83 L 475.14,237.26 L 474.72,238.29 L 474.49,238.83 L 473.89,240.13 L 472.78,242.38 L 472.11,243.72 L 471.45,246.12 L 471.44,249.55 L 471.62,250.51 L 471.62,251.94 L 471.56,252.56 L 471.13,253.28 L 470.87,253.54 L 470.08,253.48 L 469.65,253.35 L 468.58,252.44 L 468.13,251.99 L 467.64,250.94 L 467.46,250.35 L 467.54,248.73 L 467.60,248.26 L 467.84,247.16 L 467.97,246.58 L 468.37,245.20 L 468.59,244.47 L 469.15,242.75 L 470.20,239.75 L 470.58,238.67 L 471.26,237.03 L 471.60,236.28 L 472.22,235.25 L 472.53,234.80 L 473.16,234.29 L 474.19,234.00 L 474.75,234.00 M 564.63,234.40 L 564.86,234.68 L 564.86,235.78 L 564.82,236.11 L 564.61,236.92 L 564.49,237.36 L 564.11,238.40 L 563.91,238.96 L 563.36,240.26 L 562.36,242.53 L 561.84,243.65 L 561.13,245.41 L 560.82,246.22 L 560.49,247.47 L 560.37,248.04 L 560.40,248.93 L 560.80,250.05 L 561.10,250.52 L 561.38,251.45 L 561.27,252.39 L 560.98,252.68 L 560.25,252.95 L 559.87,253.04 L 559.09,252.92 L 558.70,252.82 L 558.02,252.37 L 557.71,252.10 L 557.30,251.35 L 557.14,250.92 L 557.09,249.63 L 557.11,248.93 L 557.37,247.21 L 557.69,245.43 L 558.96,241.41 L 559.30,240.43 L 560.07,238.60 L 560.46,237.72 L 561.26,236.24 L 561.65,235.55 L 562.42,234.61 L 563.45,234.00 L 564.00,234.00 M 531.19,226.60 L 531.91,226.73 L 533.18,227.27 L 534.67,228.52 L 534.91,228.84 L 535.24,229.66 L 535.39,230.09 L 535.56,231.13 L 535.69,232.21 L 535.52,234.83 L 535.38,236.19 L 534.75,239.12 L 534.39,240.59 L 533.42,243.49 L 532.91,244.90 L 531.73,247.43 L 531.12,248.62 L 529.85,250.44 L 529.53,250.84 L 528.90,251.43 L 528.58,251.70 L 527.97,252.00 L 527.67,252.11 L 527.09,252.08 L 526.28,251.61 L 526.19,251.53 L 526.21,251.06 L 526.24,250.78 L 526.47,250.02 L 527.84,247.08 L 528.33,246.21 L 528.96,244.95 L 529.22,244.39 L 529.42,243.57 L 529.46,243.20 L 529.26,242.59 L 528.53,241.67 L 528.11,241.25 L 527.10,240.59 L 526.58,240.29 L 525.41,239.87 L 524.20,239.50 L 521.50,239.47 L 520.13,239.57 L 517.41,240.44 L 513.75,242.72 L 513.23,243.19 L 512.59,244.18 L 512.33,244.68 L 512.15,245.66 L 512.12,246.15 L 512.35,247.06 L 512.51,247.50 L 513.08,248.27 L 513.41,248.63 L 514.27,249.19 L 514.72,249.43 L 515.80,249.71 L 516.36,249.81 L 517.59,249.74 L 519.55,249.16 L 520.25,248.84 L 521.85,248.35 L 523.80,248.03 L 524.13,248.04 L 524.49,248.16 L 524.61,248.25 L 524.55,248.57 L 524.47,248.77 L 523.97,249.34 L 522.69,250.53 L 521.88,251.25 L 520.00,252.21 L 519.03,252.61 L 516.99,252.94 L 515.97,253.02 L 513.97,252.69 L 512.99,252.44 L 511.22,251.44 L 510.78,251.14 L 510.09,250.37 L 509.77,249.96 L 509.32,249.02 L 508.93,248.06 L 508.85,245.84 L 508.93,244.73 L 509.77,242.51 L 512.03,239.63 L 513.17,238.67 L 515.65,237.35 L 516.94,236.79 L 519.77,236.25 L 521.23,236.08 L 524.46,236.32 L 529.82,237.54 L 530.36,237.71 L 531.09,237.85 L 531.41,237.87 L 531.75,237.59 L 531.88,237.38 L 531.94,236.52 L 531.82,234.38 L 531.75,233.59 L 531.56,232.42 L 531.45,231.89 L 531.11,231.18 L 530.92,230.87 L 530.35,230.49 L 529.17,230.17 L 528.53,230.08 L 526.96,230.44 L 524.94,231.56 L 524.49,231.96 L 523.87,232.47 L 523.60,232.67 L 523.22,232.77 L 523.05,232.77 L 522.79,232.47 L 522.38,231.56 L 522.17,230.99 L 522.29,229.96 L 522.42,229.46 L 523.13,228.59 L 523.55,228.17 L 524.68,227.51 L 525.29,227.20 L 526.70,226.77 L 527.43,226.60 L 528.95,226.45 L 529.71,226.42 M 729.21,229.25 L 729.41,229.43 L 729.68,230.11 L 729.80,230.51 L 729.93,231.72 L 730.01,234.25 L 730.01,235.63 L 730.28,238.58 L 730.45,240.04 L 730.96,242.71 L 731.10,243.33 L 731.39,244.43 L 731.55,244.95 L 731.86,245.78 L 732.02,246.15 L 732.34,246.65 L 732.80,246.93 L 732.89,246.92 L 733.43,246.42 L 733.74,246.10 L 734.62,245.07 L 735.09,244.51 L 736.20,243.10 L 738.00,240.71 L 739.11,239.19 L 741.33,236.64 L 742.42,235.45 L 744.44,233.69 L 744.92,233.31 L 745.80,232.73 L 746.23,232.47 L 746.98,232.15 L 747.34,232.02 L 747.93,231.98 L 748.61,232.28 L 748.71,232.38 L 748.57,232.85 L 748.46,233.13 L 747.95,233.89 L 747.65,234.29 L 746.83,235.24 L 745.33,236.75 L 744.78,237.27 L 743.45,238.70 L 742.76,239.46 L 741.27,241.23 L 737.13,246.75 L 736.55,247.61 L 735.42,249.18 L 734.86,249.92 L 733.86,251.16 L 733.39,251.73 L 732.64,252.51 L 731.91,253.00 L 731.77,253.00 L 731.41,252.74 L 731.22,252.58 L 730.80,252.05 L 730.38,251.46 L 729.56,249.75 L 729.33,249.19 L 728.87,247.73 L 728.63,246.95 L 728.18,245.15 L 727.73,243.30 L 726.98,239.23 L 726.81,238.23 L 726.54,236.34 L 726.42,235.42 L 726.26,233.78 L 726.20,233.01 L 726.17,231.79 L 726.33,230.59 L 726.49,230.16 L 727.21,229.47 L 728.47,229.00 L 728.76,229.00 M 581.77,234.09 L 582.15,234.16 L 582.67,234.43 L 583.00,235.00 L 583.00,235.27 L 583.68,235.71 L 585.30,236.00 L 586.06,236.00 L 587.32,236.33 L 587.90,236.55 L 588.79,237.30 L 589.19,237.73 L 589.69,238.89 L 590.00,241.06 L 590.00,241.54 L 589.72,242.54 L 589.54,243.06 L 588.85,244.18 L 588.45,244.77 L 587.31,246.09 L 585.04,248.36 L 584.01,249.33 L 582.37,250.72 L 581.60,251.34 L 580.29,252.13 L 579.64,252.47 L 578.37,252.82 L 576.20,253.00 L 574.97,253.00 L 572.93,252.54 L 572.47,252.39 L 571.68,251.99 L 571.32,251.77 L 570.77,251.25 L 570.30,250.71 L 569.58,249.52 L 569.25,248.91 L 568.81,247.59 L 568.63,246.92 L 568.47,245.54 L 568.42,244.84 L 568.53,243.44 L 568.62,242.74 L 569.00,241.36 L 569.22,240.68 L 569.86,239.38 L 570.21,238.75 L 571.10,237.58 L 572.71,236.02 L 573.38,235.49 L 575.44,234.71 L 576.53,234.37 L 578.86,234.03 L 579.98,233.92 M 782.37,231.08 L 782.59,231.12 L 782.84,231.40 L 782.93,231.58 L 782.94,232.21 L 782.72,233.65 L 782.56,234.43 L 782.09,236.22 L 781.41,238.40 L 781.25,238.80 L 781.17,239.28 L 781.17,239.46 L 781.50,239.48 L 781.73,239.42 L 782.58,238.95 L 784.57,237.65 L 785.36,237.11 L 787.01,236.29 L 787.83,235.93 L 789.49,235.44 L 790.32,235.24 L 791.92,235.08 L 792.70,235.03 L 794.16,235.18 L 794.86,235.29 L 796.10,235.73 L 796.69,235.99 L 797.64,236.71 L 798.06,237.11 L 798.64,238.11 L 799.00,239.90 L 799.00,240.67 L 798.76,241.66 L 798.60,242.06 L 798.07,242.33 L 797.77,242.37 L 796.97,241.91 L 795.50,240.40 L 795.06,239.85 L 794.31,239.08 L 793.94,238.74 L 793.20,238.37 L 792.82,238.23 L 791.94,238.19 L 790.25,238.44 L 789.82,238.54 L 788.68,238.98 L 788.07,239.24 L 786.71,239.94 L 782.62,242.56 L 781.77,243.21 L 780.47,244.35 L 779.88,244.91 L 779.03,245.94 L 778.66,246.45 L 778.19,247.49 L 777.81,249.17 L 777.73,250.00 L 777.28,251.31 L 777.02,251.89 L 776.36,252.61 L 776.02,252.88 L 775.34,252.86 L 775.01,252.74 L 774.49,251.82 L 774.41,251.64 L 774.51,250.55 L 774.59,249.91 L 774.95,248.09 L 775.16,247.11 L 775.74,244.78 L 776.79,240.99 L 777.06,240.11 L 777.54,238.55 L 777.78,237.81 L 778.22,236.51 L 778.65,235.28 L 779.40,233.52 L 779.77,232.75 L 780.45,231.81 L 781.45,231.15 L 781.84,231.08 M 576.91,237.12 L 575.78,237.63 L 574.00,239.00 L 573.44,239.56 L 572.66,241.21 L 572.33,242.08 L 572.05,244.03 L 571.97,244.99 L 572.21,246.78 L 573.20,248.80 L 573.77,249.37 L 575.15,249.90 L 575.88,250.07 L 577.52,249.81 L 578.37,249.58 L 580.21,248.54 L 581.15,247.92 L 583.12,246.12 L 584.19,245.05 L 585.86,243.05 L 586.21,242.59 L 586.69,241.86 L 587.00,241.12 L 587.00,240.96 L 586.70,240.67 L 586.50,240.54 L 585.86,240.32 L 583.00,240.00 L 582.28,240.00 L 581.16,239.92 L 580.65,239.86 L 579.92,239.66 L 579.60,239.54 L 579.22,239.19 L 579.00,238.50 L 579.00,237.97 L 578.55,237.35 L 578.27,237.11 L 577.38,237.07 M 413.07,234.28 L 412.30,234.40 L 410.78,234.87 L 410.02,235.14 L 408.60,235.85 L 407.92,236.23 L 406.71,237.09 L 406.14,237.53 L 405.26,238.46 L 404.86,238.92 L 404.40,239.83 L 404.24,240.28 L 404.31,241.09 L 405.15,242.11 L 405.62,242.41 L 407.22,242.59 L 408.09,242.62 L 410.16,242.32 L 411.21,242.12 L 413.30,241.43 L 414.32,241.05 L 416.00,240.05 L 416.91,239.41 L 417.99,238.10 L 418.41,237.47 L 418.52,236.30 L 418.45,235.75 L 417.61,234.91 L 417.35,234.72 L 416.64,234.45 L 415.31,234.19 L 414.59,234.12 M 835.38,234.27 L 834.39,234.41 L 832.59,235.05 L 831.73,235.42 L 830.22,236.49 L 828.38,238.54 L 828.02,239.10 L 827.55,239.93 L 827.35,240.30 L 827.23,240.86 L 827.21,241.11 L 827.41,241.51 L 828.08,242.07 L 828.56,242.38 L 830.18,242.57 L 831.05,242.61 L 833.13,242.33 L 834.18,242.13 L 836.28,241.44 L 837.30,241.06 L 839.00,240.05 L 839.89,239.42 L 840.97,238.12 L 841.38,237.49 L 841.51,236.32 L 841.46,235.77 L 840.66,234.92 L 840.40,234.73 L 839.72,234.46 L 838.44,234.20 L 837.39,234.10 M 761.77,234.39 L 760.48,234.45 L 757.80,235.14 L 757.16,235.36 L 755.99,235.93 L 754.51,236.99 L 753.83,237.63 L 752.88,238.80 L 752.48,239.36 L 752.12,240.33 L 752.01,240.79 L 752.24,241.53 L 753.25,242.34 L 753.78,242.55 L 755.45,242.60 L 756.35,242.57 L 758.43,242.21 L 759.48,241.99 L 761.51,241.31 L 762.47,240.94 L 764.00,240.05 L 764.69,239.56 L 765.77,238.25 L 766.50,236.39 L 766.50,236.02 L 766.12,235.43 L 765.88,235.16 L 765.10,234.78 L 764.67,234.62 L 763.59,234.44 L 763.03,234.37 M 712.46,234.04 L 710.41,234.30 L 707.71,235.09 L 706.94,235.44 L 705.46,236.71 L 704.75,237.40 L 703.65,238.97 L 703.17,239.74 L 702.75,241.10 L 702.71,241.40 L 702.80,241.87 L 703.24,242.33 L 703.61,242.48 L 705.09,242.53 L 705.91,242.51 L 707.88,242.29 L 708.87,242.15 L 710.78,241.73 L 711.68,241.50 L 713.01,240.96 L 713.65,240.63 L 714.90,239.64 L 715.50,239.12 L 716.50,237.94 L 716.94,237.35 L 717.48,236.27 L 717.54,235.06 L 717.43,234.89 L 717.00,234.61 L 716.75,234.48 L 716.07,234.29 L 715.35,234.12 L 713.45,234.04 M 480.62,224.29 L 480.81,224.48 L 480.69,225.34 L 480.57,225.82 L 480.02,226.93 L 479.71,227.47 L 478.98,228.37 L 477.96,229.00 L 477.70,229.00 L 477.28,228.40 L 477.11,228.04 L 477.00,226.97 L 477.00,226.48 L 477.41,225.57 L 477.66,225.14 L 478.39,224.48 L 478.78,224.20 L 479.59,223.96 M 570.03,224.08 L 570.25,224.15 L 570.44,224.43 L 570.49,224.61 L 570.35,225.19 L 569.82,226.50 L 569.52,227.15 L 568.94,228.06 L 568.66,228.46 L 568.10,228.85 L 567.83,228.99 L 567.30,228.86 L 567.05,228.74 L 566.56,228.09 L 566.31,227.70 L 566.27,226.79 L 566.30,226.33 L 566.72,225.45 L 566.98,225.04 L 567.73,224.42 L 569.09,224.00 L 569.49,224.00 Z" fill="rgba(255,255,255,1)"/>
<path d="M 745.90,62.18 L 752.47,62.56 L 755.78,62.81 L 762.59,63.67 L 766.04,64.16 L 773.21,65.52 L 776.86,66.26 L 784.50,68.14 L 788.39,69.15 L 796.63,71.58 L 800.83,72.87 L 809.76,75.87 L 824.09,81.04 L 826.18,81.83 L 829.85,83.15 L 831.61,83.77 L 834.65,84.76 L 836.10,85.22 L 838.60,85.90 L 839.79,86.20 L 841.81,86.58 L 842.76,86.73 L 844.38,86.81 L 845.15,86.82 L 846.44,86.63 L 847.05,86.49 L 848.09,86.03 L 849.44,85.05 L 850.08,84.45 L 851.47,83.70 L 852.15,83.39 L 853.43,83.23 L 854.03,83.22 L 854.91,83.65 L 855.50,84.97 L 855.50,85.26 L 855.16,85.95 L 854.94,86.31 L 854.22,87.07 L 853.81,87.46 L 852.78,88.27 L 852.23,88.67 L 850.96,89.47 L 849.64,90.26 L 846.62,91.62 L 842.08,93.00 L 841.18,93.17 L 839.23,93.37 L 838.22,93.45 L 836.01,93.49 L 834.87,93.48 L 832.39,93.34 L 831.12,93.25 L 828.34,92.92 L 826.92,92.74 L 823.82,92.24 L 822.23,91.96 L 818.79,91.27 L 817.03,90.90 L 813.22,90.02 L 807.07,88.49 L 805.22,88.01 L 801.77,87.14 L 800.11,86.72 L 797.26,86.03 L 796.61,85.87 L 795.46,85.60 L 794.92,85.47 L 794.03,85.28 L 793.63,85.19 L 793.04,85.07 L 792.55,85.00 L 792.45,85.00 L 792.05,85.33 L 791.82,85.54 L 791.19,86.27 L 790.85,86.67 L 790.01,87.75 L 789.57,88.32 L 788.56,89.70 L 788.03,90.43 L 786.87,92.07 L 786.28,92.92 L 785.00,94.78 L 783.70,96.69 L 780.87,100.96 L 778.00,105.33 L 772.30,114.49 L 770.95,116.69 L 768.56,120.76 L 767.99,121.74 L 766.98,123.54 L 765.65,126.00 L 762.92,131.23 L 758.12,141.68 L 756.99,144.26 L 754.95,149.30 L 753.96,151.79 L 752.23,156.56 L 751.40,158.91 L 750.02,163.33 L 749.37,165.49 L 748.38,169.45 L 747.93,171.36 L 747.35,174.76 L 747.00,179.13 L 747.00,180.22 L 746.70,181.71 L 746.51,182.34 L 745.84,182.90 L 745.47,183.07 L 744.46,182.71 L 743.91,182.41 L 742.59,181.09 L 742.29,180.76 L 741.70,179.88 L 741.41,179.40 L 740.86,178.26 L 740.32,177.06 L 739.40,174.15 L 738.97,172.64 L 738.38,169.44 L 738.00,164.80 L 738.00,163.90 L 738.14,161.84 L 738.24,160.78 L 738.56,158.43 L 738.75,157.23 L 739.24,154.62 L 739.51,153.29 L 740.15,150.47 L 740.84,147.60 L 742.62,141.34 L 743.57,138.15 L 745.81,131.48 L 746.98,128.11 L 749.58,121.31 L 750.92,117.91 L 753.78,111.27 L 755.23,107.99 L 758.25,101.78 L 762.86,93.29 L 763.40,92.36 L 764.36,90.79 L 764.83,90.05 L 765.69,88.80 L 766.53,87.62 L 768.16,86.01 L 769.01,85.30 L 771.03,84.29 L 771.59,84.05 L 772.86,83.62 L 775.07,82.98 L 775.76,82.80 L 776.79,82.46 L 777.26,82.29 L 777.85,81.98 L 778.09,81.83 L 778.21,81.53 L 778.21,81.38 L 777.84,81.08 L 777.59,80.93 L 776.72,80.62 L 776.21,80.47 L 774.81,80.13 L 774.03,79.96 L 772.08,79.59 L 768.50,78.99 L 767.16,78.77 L 764.19,78.43 L 762.66,78.27 L 759.41,78.05 L 756.11,77.85 L 749.18,77.82 L 745.74,77.85 L 739.23,78.27 L 737.68,78.41 L 734.81,78.76 L 731.00,79.40 L 730.05,79.61 L 727.88,80.20 L 726.76,80.53 L 724.36,81.34 L 721.91,82.19 L 716.84,84.30 L 714.35,85.39 L 709.91,87.64 L 708.89,88.19 L 707.14,89.25 L 705.07,90.71 L 704.51,91.17 L 703.77,91.89 L 703.47,92.23 L 703.21,92.89 L 703.13,93.23 L 703.29,94.09 L 703.94,95.86 L 704.34,96.83 L 704.58,98.46 L 704.61,99.22 L 704.12,100.39 L 703.78,100.91 L 702.58,101.59 L 700.01,102.00 L 699.13,102.00 L 697.29,101.41 L 696.36,101.02 L 694.46,99.69 L 693.52,98.94 L 691.63,96.91 L 688.86,93.12 L 688.24,92.13 L 687.31,90.19 L 686.90,89.23 L 686.40,87.35 L 686.20,86.42 L 686.12,84.60 L 686.13,83.70 L 686.45,81.96 L 686.67,81.10 L 687.39,79.44 L 687.80,78.62 L 688.91,77.04 L 689.51,76.27 L 691.00,74.79 L 691.79,74.06 L 693.65,72.68 L 694.62,72.00 L 696.83,70.73 L 697.98,70.11 L 700.54,68.95 L 701.87,68.39 L 704.77,67.36 L 706.26,66.86 L 709.48,65.95 L 711.14,65.51 L 714.68,64.74 L 716.49,64.38 L 720.34,63.75 L 722.30,63.46 L 726.45,62.98 L 733.00,62.44 L 736.21,62.24 L 742.66,62.17 M 1096.41,105.40 L 1100.02,105.56 L 1101.79,105.66 L 1105.09,106.01 L 1106.70,106.21 L 1109.54,106.77 L 1113.11,107.82 L 1114.69,108.45 L 1117.21,109.72 L 1118.36,110.36 L 1120.03,111.67 L 1120.75,112.32 L 1121.57,113.65 L 1121.81,115.68 L 1121.76,115.96 L 1121.48,116.43 L 1121.30,116.64 L 1120.78,116.96 L 1120.48,117.10 L 1119.68,117.28 L 1119.25,117.35 L 1118.17,117.38 L 1117.58,117.37 L 1116.19,117.26 L 1115.45,117.18 L 1113.71,116.93 L 1112.80,116.78 L 1110.71,116.38 L 1107.16,115.61 L 1105.68,115.27 L 1103.28,114.82 L 1102.14,114.64 L 1100.15,114.47 L 1099.17,114.43 L 1097.27,114.53 L 1094.16,114.98 L 1092.76,115.23 L 1089.97,116.01 L 1088.57,116.44 L 1085.84,117.51 L 1084.50,118.07 L 1081.94,119.36 L 1080.69,120.03 L 1078.40,121.48 L 1077.31,122.21 L 1075.39,123.75 L 1074.49,124.52 L 1073.05,126.08 L 1072.40,126.85 L 1071.54,128.36 L 1071.00,130.50 L 1071.00,131.04 L 1071.26,132.14 L 1071.43,132.70 L 1072.04,133.84 L 1072.38,134.41 L 1073.32,135.58 L 1073.83,136.17 L 1075.09,137.35 L 1075.76,137.95 L 1077.35,139.15 L 1078.18,139.76 L 1080.07,140.97 L 1081.06,141.57 L 1083.26,142.78 L 1086.90,144.60 L 1088.17,145.19 L 1090.50,146.29 L 1091.63,146.82 L 1093.70,147.80 L 1095.71,148.75 L 1099.01,150.35 L 1100.56,151.10 L 1103.04,152.36 L 1104.19,152.95 L 1105.97,153.95 L 1106.79,154.42 L 1108.03,155.24 L 1108.58,155.63 L 1109.40,156.34 L 1110.90,158.44 L 1111.17,159.02 L 1111.48,160.12 L 1111.60,160.66 L 1111.61,161.70 L 1111.58,162.21 L 1111.29,163.19 L 1111.11,163.67 L 1110.52,164.59 L 1110.20,165.04 L 1109.33,165.89 L 1108.86,166.30 L 1107.70,167.09 L 1107.09,167.47 L 1105.66,168.18 L 1104.91,168.53 L 1103.20,169.17 L 1102.32,169.48 L 1100.34,170.05 L 1099.32,170.32 L 1097.08,170.82 L 1095.93,171.06 L 1093.44,171.47 L 1092.16,171.67 L 1089.41,172.01 L 1086.60,172.33 L 1080.23,172.73 L 1069.62,172.96 L 1067.09,172.95 L 1062.75,172.85 L 1060.70,172.79 L 1057.32,172.58 L 1055.74,172.47 L 1053.30,172.15 L 1052.19,171.98 L 1050.68,171.55 L 1049.51,171.13 L 1047.50,170.14 L 1046.56,169.62 L 1045.08,168.49 L 1044.42,167.91 L 1043.54,166.70 L 1043.00,164.88 L 1043.00,164.46 L 1043.16,163.75 L 1043.26,163.42 L 1043.66,162.87 L 1043.90,162.62 L 1044.57,162.22 L 1044.94,162.05 L 1045.93,161.80 L 1046.46,161.70 L 1047.80,161.60 L 1048.51,161.57 L 1050.22,161.60 L 1051.13,161.64 L 1053.25,161.80 L 1056.95,162.19 L 1059.01,162.43 L 1063.48,162.70 L 1065.76,162.80 L 1070.47,162.80 L 1072.83,162.78 L 1077.50,162.55 L 1079.81,162.42 L 1084.19,161.99 L 1086.32,161.76 L 1090.12,161.16 L 1091.93,160.84 L 1094.90,160.10 L 1095.58,159.91 L 1096.73,159.51 L 1097.27,159.30 L 1098.12,158.87 L 1098.51,158.65 L 1099.02,158.20 L 1099.38,157.50 L 1099.40,157.31 L 1099.03,156.78 L 1098.78,156.50 L 1097.87,155.82 L 1097.35,155.45 L 1095.93,154.61 L 1095.15,154.17 L 1093.24,153.18 L 1092.21,152.66 L 1089.82,151.54 L 1088.56,150.95 L 1085.70,149.70 L 1084.22,149.05 L 1080.92,147.67 L 1075.49,145.48 L 1073.66,144.76 L 1070.29,143.38 L 1068.66,142.71 L 1065.67,141.43 L 1064.22,140.80 L 1061.59,139.60 L 1060.33,139.00 L 1058.06,137.87 L 1056.97,137.31 L 1055.05,136.23 L 1054.13,135.70 L 1052.55,134.66 L 1051.79,134.15 L 1050.53,133.15 L 1049.94,132.65 L 1049.00,131.67 L 1048.56,131.18 L 1047.92,130.21 L 1047.64,129.72 L 1047.29,128.75 L 1047.16,128.26 L 1047.09,127.27 L 1047.10,126.77 L 1047.31,125.76 L 1047.58,124.73 L 1048.91,122.56 L 1051.99,119.01 L 1053.21,117.79 L 1056.00,115.61 L 1057.47,114.56 L 1060.85,112.67 L 1062.62,111.75 L 1066.69,110.09 L 1073.69,107.80 L 1075.09,107.39 L 1078.27,106.74 L 1079.91,106.44 L 1083.44,106.00 L 1087.02,105.60 L 1094.55,105.40 M 889.84,115.18 L 890.43,115.26 L 891.24,115.64 L 891.58,115.87 L 891.91,116.59 L 892.02,116.99 L 891.90,118.11 L 891.78,118.73 L 891.21,120.32 L 890.88,121.18 L 889.89,123.32 L 887.95,127.20 L 887.05,128.97 L 885.45,132.39 L 884.70,134.08 L 883.41,137.32 L 882.81,138.91 L 881.84,141.94 L 881.39,143.43 L 880.73,146.23 L 880.44,147.60 L 880.10,150.15 L 879.97,151.40 L 879.96,153.68 L 879.99,154.79 L 880.31,156.79 L 881.15,159.43 L 881.51,160.21 L 882.28,161.37 L 882.69,161.88 L 883.67,162.45 L 884.19,162.66 L 885.48,162.57 L 886.18,162.44 L 887.90,161.64 L 888.83,161.15 L 891.11,159.57 L 891.71,159.12 L 893.06,158.07 L 893.75,157.52 L 895.27,156.25 L 896.05,155.59 L 897.76,154.10 L 898.65,153.32 L 900.57,151.60 L 901.56,150.71 L 903.70,148.74 L 907.18,145.52 L 908.43,144.36 L 910.75,142.20 L 911.88,141.15 L 913.98,139.22 L 915.00,138.27 L 916.89,136.54 L 917.82,135.70 L 919.52,134.16 L 921.17,132.67 L 923.96,130.23 L 925.28,129.09 L 927.46,127.29 L 928.49,126.47 L 930.17,125.23 L 930.96,124.67 L 932.25,123.91 L 932.85,123.58 L 933.85,123.21 L 935.12,123.00 L 935.87,123.00 L 937.36,123.43 L 938.07,123.71 L 939.29,124.52 L 939.84,124.96 L 940.51,125.95 L 940.63,127.38 L 939.88,129.10 L 938.61,132.05 L 938.00,133.46 L 937.00,135.89 L 936.53,137.04 L 935.76,139.05 L 935.41,140.00 L 934.84,141.69 L 934.31,143.32 L 933.71,146.09 L 933.21,150.40 L 933.13,151.49 L 933.09,153.45 L 933.09,154.39 L 933.21,156.07 L 933.30,156.88 L 933.61,158.32 L 933.79,159.01 L 934.31,160.25 L 934.59,160.84 L 935.33,161.91 L 935.72,162.43 L 936.69,163.36 L 937.21,163.81 L 938.43,164.64 L 940.57,165.82 L 941.49,166.27 L 942.88,167.11 L 943.50,167.51 L 944.31,168.25 L 944.65,168.60 L 944.92,169.19 L 944.99,169.47 L 944.74,169.90 L 944.55,170.10 L 943.82,170.33 L 943.40,170.42 L 942.21,170.42 L 941.56,170.39 L 939.95,170.14 L 937.08,169.43 L 935.53,168.97 L 932.73,167.69 L 931.39,166.99 L 929.04,165.26 L 927.93,164.34 L 926.07,162.20 L 923.88,158.54 L 923.26,157.17 L 922.51,154.56 L 922.22,153.27 L 922.15,150.68 L 922.19,149.38 L 922.80,146.66 L 924.46,142.25 L 924.80,141.53 L 925.36,140.21 L 925.61,139.58 L 925.98,138.54 L 926.13,138.07 L 926.27,137.41 L 926.18,137.00 L 926.13,137.00 L 925.87,137.17 L 925.72,137.27 L 925.27,137.64 L 924.78,138.05 L 923.32,139.38 L 922.53,140.12 L 920.63,141.96 L 917.48,145.11 L 915.33,147.30 L 911.22,151.24 L 909.19,153.14 L 905.32,156.52 L 903.41,158.14 L 899.74,160.98 L 897.93,162.33 L 894.45,164.64 L 892.72,165.72 L 889.39,167.52 L 887.74,168.35 L 884.54,169.65 L 882.95,170.24 L 879.85,171.06 L 875.28,171.76 L 874.53,171.83 L 873.27,171.92 L 872.67,171.95 L 871.69,171.98 L 870.76,171.99 L 869.43,171.73 L 868.80,171.53 L 867.66,170.73 L 867.06,170.25 L 865.53,168.73 L 864.69,167.89 L 863.56,166.61 L 863.07,165.98 L 862.50,164.71 L 862.27,164.02 L 862.08,162.19 L 862.04,161.68 L 862.01,160.44 L 862.00,158.21 L 862.00,157.29 L 862.13,155.29 L 862.21,154.27 L 862.50,152.06 L 862.83,149.79 L 863.98,144.68 L 864.63,142.03 L 866.41,136.21 L 869.77,126.75 L 870.17,125.70 L 870.98,123.87 L 871.39,123.00 L 872.23,121.51 L 872.67,120.81 L 873.60,119.62 L 874.09,119.07 L 875.16,118.15 L 875.72,117.73 L 876.99,117.04 L 877.65,116.72 L 879.15,116.23 L 879.94,116.00 L 881.72,115.66 L 884.78,115.29 L 885.89,115.19 L 887.70,115.09 L 888.54,115.07 M 1146.80,108.13 L 1147.80,108.25 L 1149.89,108.74 L 1150.93,109.03 L 1152.98,109.84 L 1153.98,110.28 L 1155.85,111.35 L 1156.75,111.92 L 1158.30,113.22 L 1160.09,115.39 L 1160.74,116.45 L 1161.51,118.28 L 1161.80,119.18 L 1161.82,120.98 L 1161.73,121.93 L 1160.97,124.14 L 1160.73,124.74 L 1160.09,126.09 L 1158.89,128.38 L 1158.47,129.17 L 1157.72,130.64 L 1157.36,131.34 L 1156.81,132.54 L 1156.56,133.10 L 1156.26,133.89 L 1156.16,134.49 L 1156.21,134.54 L 1156.85,134.21 L 1157.25,133.98 L 1158.46,133.18 L 1159.12,132.73 L 1160.74,131.55 L 1163.45,129.50 L 1165.01,128.29 L 1168.02,126.16 L 1169.51,125.14 L 1172.37,123.39 L 1173.78,122.56 L 1176.48,121.18 L 1177.80,120.55 L 1180.33,119.56 L 1181.57,119.12 L 1183.91,118.52 L 1185.06,118.27 L 1187.21,118.07 L 1188.26,118.02 L 1190.21,118.21 L 1192.90,118.96 L 1193.99,119.41 L 1195.59,120.75 L 1195.94,121.13 L 1196.51,122.06 L 1196.78,122.54 L 1197.18,123.70 L 1197.36,124.32 L 1197.60,125.75 L 1197.70,126.51 L 1197.79,128.25 L 1197.82,129.17 L 1197.78,131.26 L 1197.57,134.83 L 1197.48,136.00 L 1197.38,138.13 L 1197.34,139.15 L 1197.36,140.99 L 1197.39,141.87 L 1197.52,143.42 L 1197.60,144.16 L 1197.84,145.42 L 1197.98,146.01 L 1198.34,146.98 L 1198.53,147.43 L 1199.00,148.10 L 1199.25,148.40 L 1199.83,148.77 L 1200.83,149.00 L 1200.93,149.00 L 1201.35,148.78 L 1201.60,148.63 L 1202.28,148.15 L 1202.66,147.87 L 1203.57,147.15 L 1204.05,146.76 L 1205.14,145.82 L 1206.29,144.84 L 1208.99,142.38 L 1213.42,138.18 L 1214.95,136.69 L 1217.72,134.06 L 1219.06,132.81 L 1221.50,130.64 L 1222.69,129.61 L 1224.85,127.86 L 1225.90,127.03 L 1227.85,125.65 L 1228.81,125.00 L 1230.60,123.96 L 1231.48,123.47 L 1233.17,122.72 L 1238.15,121.39 L 1239.10,121.26 L 1240.55,121.17 L 1241.22,121.15 L 1242.30,121.32 L 1242.82,121.45 L 1243.77,121.95 L 1245.32,123.14 L 1245.90,123.64 L 1246.78,124.75 L 1247.19,125.36 L 1247.88,127.03 L 1248.04,127.50 L 1248.36,128.63 L 1248.52,129.23 L 1248.85,130.65 L 1249.02,131.40 L 1249.37,133.18 L 1249.94,136.29 L 1250.47,139.26 L 1251.91,145.17 L 1252.27,146.54 L 1252.98,148.85 L 1253.93,151.36 L 1254.47,152.46 L 1255.23,154.42 L 1255.56,155.34 L 1255.89,156.84 L 1256.00,157.52 L 1255.89,158.43 L 1255.19,159.00 L 1255.08,159.00 L 1254.61,158.74 L 1254.34,158.58 L 1253.63,158.05 L 1251.03,155.75 L 1250.09,154.84 L 1248.28,152.41 L 1247.39,151.11 L 1245.74,148.06 L 1244.95,146.47 L 1243.57,142.99 L 1241.92,137.50 L 1241.58,136.12 L 1240.76,133.58 L 1240.56,133.01 L 1240.18,132.09 L 1239.68,131.19 L 1239.39,130.82 L 1238.62,130.40 L 1238.20,130.25 L 1237.13,130.27 L 1236.56,130.34 L 1235.15,130.82 L 1234.40,131.12 L 1232.62,132.08 L 1231.68,132.63 L 1229.49,134.10 L 1228.33,134.90 L 1225.69,136.90 L 1224.31,137.96 L 1221.17,140.51 L 1215.87,144.98 L 1213.29,147.19 L 1207.80,151.40 L 1206.50,152.35 L 1204.21,153.91 L 1203.68,154.27 L 1202.74,154.85 L 1201.55,155.51 L 1200.48,156.05 L 1198.36,156.85 L 1197.31,157.21 L 1195.25,157.65 L 1194.23,157.83 L 1192.28,157.93 L 1191.33,157.93 L 1189.53,157.69 L 1188.65,157.53 L 1187.05,156.95 L 1186.28,156.62 L 1184.91,155.72 L 1184.27,155.23 L 1183.19,154.01 L 1181.93,151.84 L 1181.75,151.40 L 1181.43,150.03 L 1181.28,149.28 L 1181.04,147.41 L 1180.92,146.43 L 1180.75,144.22 L 1180.68,143.09 L 1180.59,140.70 L 1180.52,138.30 L 1180.64,133.64 L 1180.69,132.54 L 1180.87,130.58 L 1181.25,128.14 L 1181.36,127.64 L 1181.50,126.83 L 1181.55,126.46 L 1181.54,125.92 L 1181.51,125.68 L 1181.30,125.42 L 1181.16,125.33 L 1180.69,125.36 L 1180.42,125.41 L 1179.65,125.74 L 1179.22,125.94 L 1178.10,126.58 L 1177.49,126.94 L 1175.96,127.89 L 1173.17,129.70 L 1172.08,130.41 L 1169.79,132.11 L 1168.63,133.00 L 1166.26,135.02 L 1163.87,137.10 L 1159.12,141.92 L 1156.78,144.39 L 1152.49,149.60 L 1151.48,150.90 L 1149.61,153.48 L 1147.14,157.26 L 1145.96,159.21 L 1143.93,162.47 L 1142.96,163.99 L 1141.28,166.43 L 1140.48,167.56 L 1139.07,169.24 L 1138.40,170.00 L 1137.17,170.99 L 1136.58,171.40 L 1135.46,171.76 L 1134.90,171.86 L 1133.79,171.64 L 1133.23,171.46 L 1132.05,170.72 L 1131.44,170.30 L 1130.11,169.10 L 1129.25,168.30 L 1127.91,166.47 L 1127.63,166.03 L 1127.25,165.22 L 1127.00,164.22 L 1127.00,163.68 L 1126.56,162.46 L 1125.50,161.00 L 1125.25,160.79 L 1124.84,160.08 L 1124.66,159.67 L 1124.38,158.61 L 1124.26,158.05 L 1124.11,156.71 L 1124.05,156.02 L 1124.02,154.46 L 1124.03,152.87 L 1124.43,149.32 L 1125.60,143.93 L 1125.89,142.93 L 1126.81,140.24 L 1127.31,138.81 L 1128.55,135.49 L 1129.85,132.06 L 1132.88,124.59 L 1133.64,122.76 L 1135.10,119.34 L 1135.82,117.68 L 1137.11,114.81 L 1137.72,113.48 L 1138.72,111.47 L 1138.95,111.04 L 1139.32,110.38 L 1139.75,109.75 L 1140.20,109.24 L 1141.51,108.57 L 1142.22,108.29 L 1143.94,108.05 L 1144.83,107.98 M 811.43,115.81 L 815.22,116.10 L 817.13,116.29 L 820.90,116.90 L 825.84,118.12 L 826.29,118.27 L 827.38,118.76 L 827.94,119.04 L 829.13,119.71 L 832.35,122.00 L 832.79,122.39 L 834.09,123.29 L 834.80,123.76 L 836.49,124.74 L 841.98,127.41 L 843.38,127.98 L 845.82,129.15 L 846.98,129.74 L 848.94,130.97 L 849.86,131.59 L 851.36,132.89 L 852.05,133.54 L 853.08,134.93 L 853.55,135.63 L 854.14,137.12 L 854.38,137.88 L 854.54,139.50 L 854.56,140.32 L 854.30,142.07 L 853.44,144.87 L 853.08,145.76 L 852.04,147.56 L 851.47,148.45 L 850.04,150.24 L 849.28,151.13 L 847.50,152.89 L 846.58,153.76 L 844.49,155.47 L 842.34,157.16 L 837.32,160.32 L 834.71,161.85 L 829.02,164.57 L 826.13,165.86 L 820.13,167.98 L 817.12,168.95 L 811.16,170.32 L 809.68,170.61 L 806.80,171.02 L 805.38,171.20 L 802.62,171.37 L 801.27,171.42 L 798.68,171.33 L 797.42,171.25 L 795.04,170.89 L 793.09,170.51 L 789.52,169.16 L 787.80,168.40 L 784.75,166.37 L 783.29,165.28 L 780.82,162.68 L 779.66,161.33 L 777.83,158.30 L 777.01,156.75 L 775.90,153.42 L 775.44,151.73 L 775.11,148.22 L 775.05,146.46 L 775.57,142.90 L 777.38,137.65 L 777.98,136.42 L 779.53,134.00 L 780.36,132.79 L 782.31,130.44 L 783.32,129.27 L 785.59,127.06 L 786.76,125.97 L 789.26,123.95 L 790.54,122.97 L 793.20,121.21 L 794.55,120.37 L 797.29,118.93 L 798.66,118.26 L 801.41,117.20 L 805.43,116.11 L 806.00,116.01 L 807.38,115.88 L 808.11,115.83 L 809.74,115.81 M 1033.36,114.35 L 1033.96,114.46 L 1034.91,114.73 L 1035.80,115.20 L 1036.31,115.71 L 1036.81,117.25 L 1036.98,118.11 L 1036.83,120.30 L 1036.67,121.48 L 1035.86,124.25 L 1033.92,129.00 L 1032.81,131.35 L 1031.12,135.66 L 1030.36,137.79 L 1029.29,141.97 L 1028.83,144.09 L 1028.30,148.58 L 1028.00,156.13 L 1028.00,157.94 L 1027.93,160.98 L 1027.88,162.40 L 1027.70,164.66 L 1027.60,165.70 L 1027.29,167.21 L 1027.12,167.87 L 1026.66,168.66 L 1026.41,168.96 L 1025.78,169.05 L 1025.44,169.01 L 1024.62,168.42 L 1024.18,168.04 L 1023.15,166.79 L 1022.60,166.09 L 1021.34,164.22 L 1020.41,162.80 L 1018.71,159.84 L 1017.90,158.35 L 1016.45,155.30 L 1015.76,153.77 L 1014.58,150.70 L 1014.02,149.16 L 1013.12,146.12 L 1012.70,144.61 L 1012.10,141.67 L 1011.83,140.22 L 1011.54,137.43 L 1011.43,136.06 L 1011.47,133.49 L 1011.92,129.94 L 1012.21,128.59 L 1012.94,126.17 L 1013.33,124.99 L 1014.28,122.91 L 1014.77,121.91 L 1015.93,120.17 L 1016.53,119.34 L 1017.91,117.93 L 1018.62,117.27 L 1020.22,116.21 L 1021.04,115.71 L 1022.86,114.98 L 1023.80,114.65 L 1025.84,114.24 L 1029.17,114.00 L 1030.66,114.00 M 1007.06,100.07 L 1008.88,100.42 L 1009.76,100.64 L 1011.33,101.41 L 1012.08,101.84 L 1013.37,103.04 L 1013.98,103.68 L 1014.99,105.30 L 1016.17,108.18 L 1016.46,109.13 L 1016.78,110.46 L 1016.90,111.06 L 1016.87,111.92 L 1016.80,112.31 L 1016.35,112.98 L 1015.15,114.08 L 1014.48,114.63 L 1013.22,115.19 L 1012.60,115.38 L 1011.32,115.21 L 1010.67,115.03 L 1009.23,114.09 L 1006.71,111.75 L 1006.10,111.10 L 1005.12,110.21 L 1004.65,109.83 L 1003.76,109.41 L 1003.31,109.25 L 1002.25,109.20 L 1000.21,109.45 L 998.63,109.73 L 995.41,111.07 L 993.80,111.86 L 990.60,114.12 L 989.01,115.35 L 985.92,118.41 L 984.39,120.03 L 981.49,123.76 L 980.07,125.70 L 977.46,129.99 L 976.20,132.19 L 973.96,136.91 L 972.89,139.31 L 971.11,144.34 L 969.06,152.10 L 968.74,153.67 L 967.77,156.32 L 967.22,157.58 L 965.71,159.68 L 964.88,160.67 L 962.76,162.33 L 958.78,164.45 L 957.73,164.89 L 955.54,165.48 L 954.45,165.73 L 952.41,165.94 L 951.45,166.00 L 949.91,165.80 L 949.23,165.65 L 948.51,165.02 L 948.47,164.96 L 948.42,164.61 L 948.39,164.40 L 948.37,163.79 L 948.36,163.13 L 948.43,161.17 L 948.48,160.10 L 948.67,157.53 L 949.08,153.27 L 949.39,150.37 L 949.70,144.45 L 949.81,141.53 L 949.73,136.12 L 949.68,134.83 L 949.52,132.47 L 949.43,131.33 L 949.18,129.35 L 949.04,128.41 L 948.71,126.88 L 948.10,125.19 L 947.80,124.63 L 946.54,123.65 L 944.33,122.82 L 943.36,122.70 L 942.20,122.26 L 941.74,122.01 L 941.48,121.37 L 941.45,121.03 L 941.97,120.26 L 942.31,119.87 L 943.46,119.06 L 944.10,118.65 L 945.76,117.88 L 946.64,117.51 L 948.67,116.87 L 949.72,116.57 L 952.00,116.13 L 955.54,115.79 L 956.54,115.76 L 958.31,115.81 L 959.17,115.84 L 960.67,116.03 L 961.40,116.14 L 962.66,116.47 L 963.26,116.66 L 964.30,117.16 L 964.80,117.43 L 965.64,118.11 L 966.04,118.48 L 966.72,119.35 L 968.23,122.77 L 969.51,127.31 L 972.41,123.13 L 973.01,122.27 L 974.50,120.40 L 975.29,119.46 L 977.09,117.49 L 978.95,115.51 L 983.21,111.59 L 985.37,109.69 L 989.67,106.41 L 990.72,105.65 L 992.69,104.38 L 995.38,102.90 L 996.73,102.26 L 999.28,101.30 L 1000.52,100.88 L 1002.84,100.36 L 1003.97,100.15 L 1006.05,100.07 M 808.75,123.32 L 807.67,123.59 L 806.55,123.93 L 804.29,124.85 L 803.16,125.35 L 800.92,126.53 L 798.70,127.77 L 794.56,130.84 L 793.56,131.65 L 791.72,133.35 L 790.83,134.21 L 789.22,136.00 L 788.46,136.90 L 787.15,138.72 L 785.58,141.46 L 785.10,142.49 L 784.36,144.47 L 784.03,145.45 L 783.60,147.34 L 783.43,148.28 L 783.29,150.06 L 783.25,150.93 L 783.40,152.60 L 783.50,153.41 L 783.91,154.94 L 784.15,155.69 L 784.81,157.09 L 785.18,157.76 L 786.08,159.01 L 786.56,159.61 L 787.70,160.68 L 788.30,161.20 L 789.65,162.11 L 790.35,162.54 L 791.91,163.26 L 792.71,163.59 L 794.46,164.12 L 795.36,164.36 L 797.29,164.68 L 798.27,164.81 L 800.37,164.91 L 801.44,164.93 L 803.69,164.81 L 804.83,164.72 L 807.22,164.35 L 808.43,164.14 L 810.95,163.52 L 813.04,162.97 L 817.36,161.36 L 819.50,160.49 L 823.66,158.41 L 825.68,157.33 L 829.30,154.96 L 833.73,151.32 L 834.72,150.33 L 836.08,148.84 L 836.67,148.15 L 837.36,146.97 L 837.64,146.39 L 837.84,145.13 L 837.81,142.75 L 837.74,141.88 L 837.52,140.54 L 837.38,139.92 L 836.92,138.92 L 836.65,138.45 L 835.83,137.60 L 834.09,136.27 L 833.34,135.77 L 832.09,135.09 L 831.47,134.80 L 830.20,134.48 L 829.52,134.37 L 827.86,134.35 L 824.52,134.61 L 823.34,134.73 L 821.42,134.83 L 820.51,134.86 L 819.00,134.75 L 818.28,134.68 L 817.01,134.35 L 815.19,133.60 L 814.21,133.09 L 812.51,131.77 L 811.72,131.08 L 810.51,129.53 L 809.97,128.74 L 809.37,127.16 L 809.30,124.96 L 809.41,124.53 L 809.49,123.94 L 809.50,123.69 L 809.34,123.42 L 809.22,123.32 M 1038.94,90.49 L 1039.72,90.66 L 1041.40,91.59 L 1042.22,92.12 L 1043.72,93.49 L 1044.41,94.19 L 1045.35,95.61 L 1045.53,95.95 L 1045.72,96.57 L 1045.71,97.37 L 1045.67,97.50 L 1045.06,97.87 L 1044.68,98.07 L 1043.52,98.53 L 1042.89,98.77 L 1041.35,99.27 L 1040.54,99.53 L 1038.77,100.03 L 1036.97,100.53 L 1033.34,101.35 L 1032.49,101.52 L 1030.97,101.77 L 1029.15,101.95 L 1028.80,101.95 L 1027.94,101.72 L 1027.49,101.56 L 1026.49,101.02 L 1025.47,100.42 L 1023.33,98.53 L 1022.37,97.57 L 1021.05,95.79 L 1020.78,95.39 L 1020.49,94.74 L 1020.44,94.09 L 1020.57,93.89 L 1021.38,93.45 L 1021.87,93.23 L 1023.28,92.76 L 1024.04,92.53 L 1025.85,92.07 L 1026.78,91.84 L 1028.81,91.43 L 1030.85,91.03 L 1034.78,90.52 L 1035.69,90.43 L 1037.23,90.37 M 933.11,85.19 L 932.97,85.21 L 933.11,85.19 M 934.32,84.90 L 934.29,84.91 L 934.32,84.90 M 936.67,84.23 L 934.79,84.77 L 936.69,84.23 M 941.36,82.16 L 939.90,82.85 L 939.20,83.18 L 937.92,83.72 L 936.90,84.14 L 937.95,83.71 L 939.23,83.17 L 939.94,82.84 L 941.41,82.14 L 942.04,81.83 M 902.70,82.55 L 901.61,83.70 L 902.70,82.55 M 948.69,77.93 L 946.29,79.51 L 942.30,81.69 L 948.44,78.01 L 949.72,77.08 M 906.87,77.67 L 906.45,78.17 L 907.26,77.16 M 911.36,70.29 L 911.49,70.71 L 911.31,71.27 L 911.10,71.67 L 910.61,72.54 L 910.26,73.08 L 909.92,73.59 L 910.30,73.02 L 910.64,72.49 L 911.10,71.63 L 911.30,71.24 L 911.45,70.69 L 911.28,70.26 L 911.24,70.25 M 916.59,0.40 L 916.79,0.46 L 917.34,0.75 L 917.64,0.93 L 918.38,1.48 L 918.77,1.78 L 919.70,2.59 L 920.20,3.02 L 921.34,4.09 L 921.93,4.65 L 923.27,5.98 L 923.97,6.68 L 925.53,8.27 L 928.10,10.97 L 938.80,22.32 L 938.26,34.02 L 938.20,35.29 L 938.12,37.49 L 938.08,38.54 L 938.05,40.38 L 938.03,42.14 L 938.19,44.93 L 938.31,46.27 L 938.78,48.76 L 939.91,52.93 L 940.16,53.75 L 940.59,55.12 L 940.81,55.77 L 941.19,56.85 L 941.57,57.87 L 942.32,59.22 L 942.72,59.82 L 943.69,60.62 L 945.67,61.63 L 946.65,62.04 L 948.64,62.51 L 949.10,62.59 L 949.90,62.64 L 950.78,62.53 L 951.23,62.36 L 952.52,61.68 L 953.21,61.29 L 954.89,60.25 L 955.76,59.70 L 957.72,58.38 L 958.72,57.69 L 960.85,56.17 L 963.00,54.61 L 967.34,51.23 L 968.39,50.39 L 970.36,48.75 L 973.02,46.41 L 973.73,45.76 L 974.98,44.64 L 975.58,44.11 L 976.65,43.21 L 977.67,42.37 L 979.30,41.25 L 980.06,40.78 L 981.39,40.27 L 983.35,40.00 L 983.81,40.00 L 985.10,39.84 L 985.80,39.74 L 987.42,39.41 L 992.51,38.00 L 993.31,37.72 L 994.80,37.25 L 995.51,37.03 L 996.73,36.69 L 997.29,36.54 L 998.09,36.37 L 998.69,36.36 L 998.74,36.41 L 998.53,36.72 L 998.39,36.91 L 997.84,37.44 L 995.28,39.54 L 994.76,39.93 L 993.48,40.93 L 992.82,41.46 L 991.38,42.64 L 987.31,46.14 L 986.16,47.19 L 983.52,49.01 L 982.89,49.42 L 981.73,50.04 L 980.31,50.60 L 979.75,50.73 L 978.49,51.24 L 977.83,51.53 L 976.37,52.36 L 975.61,52.82 L 973.97,53.96 L 973.13,54.57 L 971.31,56.01 L 970.39,56.77 L 968.42,58.50 L 967.41,59.40 L 965.30,61.41 L 964.22,62.45 L 961.97,64.74 L 958.47,68.45 L 957.55,69.45 L 956.60,70.45 L 956.80,70.12 L 957.27,69.14 L 957.29,68.76 L 957.18,68.09 L 956.88,67.90 L 956.10,67.73 L 955.11,67.62 L 954.41,67.56 L 952.86,67.46 L 951.91,67.42 L 949.88,67.33 L 948.71,67.29 L 946.26,67.22 L 944.91,67.19 L 942.12,67.13 L 940.62,67.11 L 934.37,67.04 L 931.00,67.05 L 927.19,67.05 L 924.86,67.06 L 923.79,67.06 L 919.80,67.08 L 918.17,67.10 L 915.15,67.15 L 913.97,67.18 L 911.81,67.26 L 911.02,67.31 L 909.61,67.42 L 909.15,67.49 L 908.39,67.65 L 908.20,67.74 L 907.97,67.95 L 908.01,68.07 L 908.18,68.34 L 908.39,68.50 L 910.04,69.61 L 911.06,70.19 L 911.02,70.17 L 910.31,69.81 L 909.92,69.60 L 908.99,69.01 L 908.02,68.38 L 905.57,66.57 L 904.28,65.60 L 901.44,63.32 L 900.00,62.14 L 897.07,59.64 L 895.62,58.39 L 892.90,55.93 L 891.59,54.72 L 889.36,52.56 L 888.85,52.05 L 887.97,51.12 L 887.56,50.68 L 886.91,49.92 L 886.62,49.56 L 886.24,49.00 L 886.00,48.40 L 886.00,48.01 L 885.72,47.41 L 885.04,47.00 L 884.76,47.00 L 884.23,46.34 L 883.98,45.92 L 883.51,44.59 L 883.29,43.86 L 882.92,42.08 L 882.75,41.16 L 882.49,39.18 L 882.38,38.18 L 882.26,36.21 L 882.23,35.25 L 882.28,33.53 L 882.33,32.72 L 882.57,31.47 L 883.18,30.39 L 883.45,30.22 L 883.54,29.62 L 883.04,28.54 L 882.65,28.08 L 882.55,27.28 L 883.43,26.06 L 883.83,25.73 L 884.29,24.79 L 884.33,23.43 L 884.17,22.99 L 884.37,22.39 L 885.39,22.00 L 885.90,22.00 L 886.54,21.76 L 886.80,21.60 L 886.94,21.11 L 886.94,20.83 L 886.58,20.15 L 885.48,18.98 L 885.12,18.68 L 884.63,18.21 L 884.43,17.99 L 884.24,17.68 L 884.18,17.55 L 884.28,17.40 L 884.36,17.35 L 884.73,17.37 L 884.94,17.39 L 885.56,17.57 L 885.90,17.67 L 886.76,18.00 L 890.15,19.57 L 890.89,19.95 L 892.79,21.00 L 893.79,21.57 L 896.02,22.90 L 902.63,27.09 L 903.61,27.75 L 905.45,28.91 L 906.33,29.45 L 907.85,30.31 L 908.55,30.69 L 909.58,31.14 L 910.38,31.28 L 910.47,31.20 L 910.62,30.75 L 910.70,30.48 L 910.82,29.74 L 911.00,26.90 L 911.00,26.17 L 911.10,25.04 L 911.17,24.53 L 911.43,23.78 L 911.59,23.44 L 912.07,22.97 L 913.07,22.48 L 913.55,22.33 L 914.16,22.07 L 914.40,21.94 L 914.58,21.65 L 914.61,21.49 L 914.37,21.04 L 913.57,20.08 L 913.01,19.46 L 912.36,18.40 L 912.12,17.90 L 912.12,17.08 L 912.20,16.70 L 912.85,16.09 L 914.56,15.40 L 917.11,14.75 L 915.06,12.84 L 914.45,12.27 L 913.65,11.03 L 913.32,10.41 L 913.07,9.20 L 913.02,8.61 L 913.36,7.63 L 914.52,6.63 L 915.05,6.43 L 915.53,5.60 L 915.44,3.63 L 915.26,2.89 L 915.35,1.66 L 916.12,0.42 L 916.23,0.36 Z" fill="rgba(3,87,168,1)"/>
<path d="M 651.04,52.22 L 651.28,52.37 L 651.90,52.85 L 652.57,53.40 L 654.37,55.13 L 655.34,56.07 L 657.54,58.40 L 658.67,59.61 L 661.03,62.24 L 662.21,63.57 L 664.47,66.23 L 665.56,67.54 L 667.47,69.95 L 668.36,71.09 L 669.68,72.96 L 669.95,73.38 L 670.36,74.07 L 670.70,74.85 L 670.75,75.07 L 670.70,76.21 L 670.65,76.90 L 670.39,78.97 L 670.24,80.12 L 669.77,83.10 L 669.51,84.70 L 668.84,88.58 L 668.47,90.63 L 667.60,95.39 L 667.14,97.88 L 666.06,103.50 L 665.50,106.41 L 664.23,112.87 L 662.11,123.50 L 661.47,126.66 L 660.23,132.82 L 659.62,135.85 L 658.44,141.66 L 657.86,144.50 L 656.78,149.82 L 656.25,152.40 L 655.28,157.09 L 654.82,159.34 L 654.01,163.27 L 653.62,165.13 L 652.99,168.16 L 652.84,168.86 L 652.59,170.06 L 652.47,170.63 L 652.27,171.56 L 652.17,171.99 L 652.03,172.63 L 651.88,173.25 L 650.92,177.00 L 623.78,177.00 L 624.19,173.50 L 624.30,172.54 L 624.39,171.03 L 624.40,170.71 L 624.38,170.28 L 624.30,170.00 L 624.26,170.00 L 623.81,170.27 L 623.53,170.44 L 622.70,171.00 L 622.24,171.31 L 621.12,172.08 L 619.25,173.40 L 617.95,174.33 L 614.72,176.12 L 613.93,176.53 L 612.43,177.20 L 610.50,177.89 L 609.12,178.27 L 605.88,178.70 L 604.21,178.86 L 600.70,178.85 L 598.95,178.80 L 595.58,178.38 L 593.95,178.12 L 591.13,177.30 L 589.68,176.79 L 586.84,175.05 L 585.45,174.09 L 582.85,171.59 L 581.60,170.27 L 579.44,167.20 L 576.87,162.17 L 576.50,161.24 L 575.90,158.99 L 575.62,157.81 L 575.18,155.17 L 574.98,153.82 L 574.72,150.92 L 574.61,149.44 L 574.52,146.40 L 574.48,143.34 L 574.92,137.34 L 575.07,135.89 L 575.52,133.17 L 576.38,129.50 L 576.93,127.68 L 578.22,124.22 L 578.89,122.51 L 580.43,119.30 L 581.23,117.72 L 582.99,114.79 L 583.90,113.36 L 585.86,110.73 L 586.86,109.46 L 589.00,107.18 L 590.09,106.09 L 592.38,104.18 L 593.54,103.27 L 595.96,101.76 L 599.71,99.99 L 601.09,99.47 L 603.99,98.74 L 605.46,98.43 L 608.49,98.10 L 610.01,97.98 L 613.08,98.03 L 614.61,98.11 L 617.62,98.53 L 619.11,98.78 L 621.99,99.56 L 623.40,99.99 L 626.05,101.11 L 627.34,101.70 L 629.68,103.14 L 632.74,105.65 L 633.42,106.33 L 634.63,107.25 L 634.90,107.43 L 635.33,107.62 L 635.72,107.62 L 635.75,107.58 L 635.94,106.97 L 636.05,106.58 L 636.37,105.32 L 636.55,104.62 L 637.00,102.78 L 637.24,101.79 L 637.79,99.45 L 638.08,98.22 L 638.72,95.45 L 639.05,94.02 L 639.76,90.89 L 642.07,80.53 L 642.87,76.88 L 644.38,70.13 L 644.75,68.52 L 645.43,65.53 L 645.77,64.08 L 646.37,61.47 L 646.66,60.22 L 647.18,58.07 L 647.42,57.07 L 647.82,55.45 L 648.00,54.72 L 648.27,53.71 L 648.52,52.98 L 648.68,52.71 L 649.35,52.29 L 650.50,52.00 L 650.62,52.00 M 537.55,98.16 L 539.32,98.27 L 542.63,98.65 L 544.25,98.87 L 547.25,99.48 L 548.72,99.82 L 551.44,100.67 L 552.77,101.13 L 555.24,102.23 L 556.45,102.81 L 558.68,104.17 L 559.78,104.88 L 561.81,106.50 L 564.65,109.24 L 566.14,110.86 L 568.37,114.15 L 568.87,114.99 L 569.69,116.75 L 570.08,117.65 L 570.68,119.55 L 570.96,120.52 L 571.36,122.61 L 571.54,123.68 L 571.75,126.01 L 571.83,127.21 L 571.87,129.82 L 571.73,134.11 L 571.66,135.45 L 571.47,137.98 L 571.38,139.20 L 571.16,141.32 L 571.05,142.30 L 570.84,143.75 L 570.54,144.94 L 570.48,145.03 L 569.93,145.19 L 569.59,145.26 L 568.45,145.40 L 567.81,145.47 L 566.08,145.59 L 565.15,145.64 L 562.83,145.74 L 561.60,145.78 L 558.70,145.85 L 557.17,145.88 L 553.67,145.93 L 551.85,145.96 L 547.75,145.98 L 540.94,146.00 L 539.16,146.00 L 535.93,146.00 L 534.37,146.00 L 531.54,146.01 L 530.17,146.01 L 527.71,146.02 L 526.53,146.02 L 524.43,146.04 L 523.41,146.05 L 521.63,146.07 L 520.78,146.08 L 519.29,146.12 L 517.87,146.15 L 515.81,146.27 L 514.89,146.33 L 513.66,146.51 L 513.13,146.61 L 512.52,146.87 L 512.28,147.01 L 512.08,147.37 L 512.00,148.03 L 512.00,148.88 L 512.45,150.84 L 512.74,151.83 L 513.67,153.85 L 514.17,154.85 L 515.43,156.66 L 517.51,158.83 L 518.06,159.26 L 519.29,159.94 L 519.93,160.25 L 521.32,160.69 L 522.73,161.08 L 525.84,161.14 L 527.41,161.05 L 530.57,160.19 L 534.99,157.89 L 539.29,154.78 L 549.39,155.50 L 552.17,155.70 L 557.78,156.20 L 559.08,156.33 L 561.31,156.56 L 563.76,156.86 L 568.01,157.50 L 563.64,163.06 L 562.38,164.67 L 559.54,167.53 L 558.07,168.91 L 554.86,171.29 L 553.21,172.42 L 549.66,174.30 L 544.00,176.50 L 543.05,176.79 L 540.65,177.29 L 539.38,177.52 L 536.49,177.91 L 535.00,178.08 L 531.78,178.34 L 530.15,178.45 L 526.79,178.59 L 523.42,178.69 L 516.99,178.48 L 515.46,178.40 L 512.70,178.12 L 511.38,177.96 L 509.17,177.53 L 507.25,177.10 L 503.72,175.91 L 502.00,175.27 L 498.86,173.67 L 497.35,172.81 L 494.62,170.80 L 490.99,167.33 L 489.94,166.14 L 488.14,163.60 L 487.29,162.31 L 485.87,159.60 L 485.20,158.22 L 484.15,155.36 L 483.67,153.92 L 482.98,150.95 L 482.69,149.46 L 482.35,146.42 L 482.23,144.90 L 482.24,141.82 L 482.29,140.28 L 482.64,137.20 L 482.86,135.66 L 483.53,132.61 L 483.91,131.09 L 484.91,128.10 L 485.45,126.61 L 486.76,123.72 L 487.45,122.29 L 489.06,119.54 L 489.91,118.18 L 491.81,115.59 L 492.80,114.32 L 494.99,111.93 L 496.13,110.76 L 498.59,108.60 L 499.86,107.56 L 502.60,105.68 L 507.00,103.19 L 508.93,102.25 L 512.69,100.79 L 514.57,100.12 L 518.46,99.18 L 520.44,98.77 L 524.74,98.28 L 531.95,98.00 L 533.91,98.00 M 478.68,68.59 L 481.26,68.69 L 482.58,68.75 L 485.31,68.96 L 488.05,69.19 L 493.29,69.88 L 494.53,70.07 L 496.74,70.46 L 497.79,70.66 L 499.50,71.07 L 500.28,71.27 L 501.33,71.67 L 502.00,72.23 L 502.00,72.50 L 501.86,73.43 L 501.77,73.94 L 501.48,75.25 L 501.16,76.62 L 500.26,79.86 L 499.79,81.47 L 498.85,84.29 L 498.63,84.92 L 498.25,85.88 L 497.79,86.75 L 497.63,86.94 L 496.89,87.27 L 496.46,87.43 L 495.23,87.67 L 494.56,87.77 L 492.91,87.91 L 490.03,88.00 L 488.75,88.00 L 486.74,88.09 L 485.81,88.14 L 484.41,88.37 L 483.77,88.51 L 482.83,88.91 L 481.75,89.75 L 481.32,90.24 L 480.43,91.97 L 480.00,92.90 L 479.28,95.00 L 478.96,96.03 L 478.62,97.83 L 478.57,98.23 L 478.57,98.85 L 478.77,99.43 L 478.84,99.51 L 479.49,99.65 L 479.89,99.72 L 481.05,99.83 L 481.68,99.88 L 483.21,99.96 L 485.75,100.00 L 492.16,100.00 L 491.51,103.25 L 491.11,105.24 L 490.24,108.75 L 489.80,110.42 L 488.86,113.22 L 488.39,114.53 L 487.41,116.54 L 485.94,118.55 L 485.63,118.84 L 484.71,119.37 L 484.21,119.62 L 482.99,120.08 L 478.67,120.98 L 473.50,121.50 L 467.95,148.02 L 467.19,151.67 L 465.74,158.41 L 465.39,160.03 L 464.72,163.03 L 464.40,164.49 L 463.81,167.11 L 463.52,168.37 L 463.02,170.54 L 462.78,171.56 L 462.38,173.20 L 462.19,173.95 L 461.91,174.98 L 461.64,175.77 L 461.57,175.88 L 461.13,176.08 L 460.86,176.18 L 460.05,176.35 L 459.61,176.43 L 458.50,176.58 L 457.91,176.65 L 456.55,176.77 L 455.13,176.88 L 451.78,177.01 L 450.05,177.07 L 446.41,177.09 L 444.59,177.09 L 441.09,177.01 L 439.40,176.95 L 436.49,176.75 L 435.82,176.70 L 434.66,176.56 L 434.12,176.49 L 433.26,176.33 L 432.87,176.25 L 432.36,176.06 L 432.16,175.97 L 432.06,175.75 L 432.06,175.66 L 432.19,174.96 L 432.27,174.52 L 432.53,173.17 L 432.68,172.43 L 433.08,170.51 L 433.29,169.49 L 433.79,167.08 L 434.05,165.83 L 434.65,163.00 L 434.96,161.55 L 435.63,158.39 L 437.87,148.00 L 443.62,121.50 L 438.31,121.20 L 437.48,121.15 L 436.08,120.99 L 435.43,120.90 L 434.42,120.66 L 433.97,120.53 L 433.38,120.22 L 433.03,119.70 L 433.04,119.32 L 433.23,118.11 L 433.34,117.43 L 433.69,115.76 L 434.07,114.01 L 435.13,109.95 L 435.40,108.95 L 435.94,107.04 L 436.22,106.12 L 436.73,104.51 L 436.98,103.76 L 437.41,102.64 L 437.90,101.70 L 438.05,101.55 L 438.70,101.23 L 439.07,101.07 L 440.05,100.76 L 443.68,100.05 L 448.35,99.50 L 450.10,91.36 L 450.57,89.15 L 451.65,85.30 L 452.22,83.47 L 453.53,80.34 L 454.22,78.86 L 455.83,76.38 L 456.68,75.22 L 458.67,73.34 L 459.72,72.47 L 462.15,71.13 L 463.43,70.52 L 466.38,69.66 L 467.93,69.28 L 471.46,68.84 L 477.50,68.59 M 616.92,118.43 L 613.36,119.86 L 612.55,120.37 L 611.00,121.96 L 610.24,122.83 L 608.82,125.03 L 608.14,126.18 L 606.91,128.82 L 606.33,130.18 L 605.34,133.09 L 604.88,134.57 L 604.19,137.59 L 603.88,139.10 L 603.53,142.08 L 603.40,143.55 L 603.45,146.31 L 604.01,150.02 L 604.41,151.54 L 605.54,153.98 L 606.16,155.10 L 607.73,156.78 L 608.56,157.53 L 610.57,158.45 L 614.11,159.00 L 615.00,159.00 L 616.41,158.86 L 617.07,158.75 L 618.21,158.30 L 618.77,158.03 L 619.93,157.14 L 620.53,156.62 L 621.96,155.16 L 622.55,154.55 L 623.65,153.10 L 624.19,152.34 L 625.19,150.63 L 626.16,148.88 L 627.74,144.81 L 628.45,142.71 L 629.40,138.24 L 630.00,131.49 L 630.00,130.09 L 629.91,128.00 L 629.84,127.05 L 629.52,125.62 L 629.33,124.94 L 628.69,123.78 L 627.25,121.95 L 626.35,120.94 L 624.19,119.53 L 623.07,118.92 L 620.64,118.34 L 619.41,118.15 M 528.43,115.97 L 526.94,116.31 L 524.06,117.64 L 522.65,118.42 L 520.11,120.66 L 519.51,121.28 L 518.41,122.68 L 516.97,125.05 L 516.52,125.94 L 515.81,127.39 L 515.49,128.06 L 515.12,129.13 L 514.98,129.62 L 515.04,130.37 L 515.13,130.71 L 515.72,131.18 L 516.08,131.39 L 517.29,131.65 L 517.97,131.76 L 519.89,131.85 L 520.94,131.89 L 523.66,131.87 L 528.75,131.78 L 542.50,131.50 L 542.80,126.86 L 542.86,125.99 L 542.74,124.39 L 542.64,123.61 L 542.23,122.21 L 542.00,121.54 L 541.35,120.34 L 540.99,119.76 L 540.12,118.77 L 539.66,118.30 L 538.61,117.51 L 538.06,117.14 L 536.85,116.56 L 535.61,116.04 L 532.82,115.62 L 531.40,115.52 Z" fill="rgba(10,88,66,1)"/>
<path d="M 187.53,97.42 L 193.50,97.89 L 195.14,98.06 L 198.06,98.43 L 199.47,98.63 L 201.99,99.06 L 203.20,99.29 L 205.35,99.79 L 206.38,100.06 L 208.22,100.66 L 209.11,100.98 L 210.69,101.69 L 211.45,102.07 L 212.83,102.91 L 216.40,106.02 L 217.15,106.85 L 218.37,108.60 L 218.93,109.50 L 219.78,111.48 L 220.16,112.51 L 220.64,114.85 L 220.83,116.07 L 220.93,118.88 L 220.94,120.36 L 220.68,123.77 L 220.50,125.56 L 219.87,129.69 L 219.50,131.86 L 218.50,136.84 L 218.22,138.14 L 217.61,140.93 L 216.58,145.39 L 216.10,147.43 L 215.16,151.65 L 214.71,153.74 L 213.91,157.70 L 213.53,159.60 L 212.94,162.84 L 212.81,163.58 L 212.61,164.86 L 212.41,166.39 L 212.29,167.52 L 211.99,169.45 L 211.83,170.36 L 211.41,171.88 L 211.19,172.59 L 210.59,173.74 L 210.27,174.27 L 209.45,175.10 L 209.00,175.48 L 207.90,176.04 L 207.30,176.29 L 205.85,176.62 L 205.08,176.76 L 203.23,176.92 L 199.96,177.00 L 198.39,177.00 L 196.01,176.91 L 194.91,176.85 L 193.25,176.60 L 192.49,176.44 L 191.27,175.96 L 189.63,174.93 L 188.91,174.36 L 187.77,173.06 L 187.54,172.75 L 187.21,172.18 L 187.00,171.49 L 187.00,170.93 L 186.66,170.14 L 186.44,169.80 L 185.77,169.46 L 185.41,169.36 L 184.54,169.52 L 183.16,170.36 L 182.81,170.68 L 181.81,171.37 L 181.27,171.72 L 179.96,172.44 L 178.60,173.17 L 175.32,174.59 L 173.65,175.26 L 170.31,176.35 L 169.50,176.58 L 168.00,176.95 L 166.00,177.29 L 165.38,177.36 L 163.89,177.42 L 163.11,177.44 L 161.46,177.41 L 160.63,177.38 L 159.02,177.26 L 158.23,177.19 L 156.86,176.99 L 155.19,176.71 L 152.12,175.78 L 150.64,175.26 L 147.97,173.90 L 146.68,173.17 L 144.43,171.40 L 143.36,170.47 L 141.55,168.33 L 140.71,167.21 L 139.37,164.72 L 138.76,163.44 L 137.91,160.65 L 137.55,159.21 L 137.21,156.14 L 137.32,151.24 L 137.48,149.62 L 138.14,146.70 L 138.52,145.29 L 139.64,142.76 L 140.25,141.55 L 141.85,139.40 L 142.72,138.37 L 144.83,136.58 L 145.95,135.73 L 148.60,134.27 L 150.00,133.58 L 153.22,132.44 L 154.91,131.91 L 158.73,131.07 L 165.15,130.10 L 166.63,129.94 L 169.35,129.64 L 170.68,129.49 L 173.11,129.22 L 174.29,129.08 L 176.45,128.84 L 177.49,128.72 L 179.39,128.50 L 181.23,128.29 L 184.20,127.93 L 185.57,127.76 L 187.72,127.47 L 188.71,127.34 L 190.17,127.11 L 190.83,127.00 L 191.75,126.80 L 192.15,126.71 L 192.64,126.53 L 193.06,126.26 L 193.25,126.05 L 193.72,124.95 L 194.36,122.85 L 194.61,121.79 L 194.38,119.96 L 194.14,119.09 L 192.97,117.68 L 192.28,117.03 L 190.22,116.09 L 186.20,115.25 L 184.59,115.09 L 181.77,115.21 L 180.42,115.35 L 178.14,116.04 L 177.07,116.45 L 175.34,117.71 L 173.39,120.21 L 173.08,120.81 L 172.52,121.67 L 172.24,122.04 L 171.66,122.48 L 171.35,122.65 L 170.61,122.75 L 169.19,122.58 L 168.82,122.51 L 167.59,122.29 L 166.92,122.17 L 165.23,121.89 L 159.50,121.00 L 157.88,120.76 L 155.22,120.36 L 153.99,120.18 L 152.04,119.85 L 151.14,119.69 L 149.78,119.40 L 149.17,119.25 L 148.32,118.95 L 147.95,118.79 L 147.50,118.44 L 147.31,118.25 L 147.17,117.79 L 147.38,115.87 L 147.57,114.89 L 148.50,112.69 L 149.03,111.57 L 150.51,109.30 L 151.30,108.17 L 153.14,106.08 L 156.13,103.40 L 157.00,102.76 L 159.06,101.62 L 160.15,101.08 L 162.62,100.14 L 163.90,99.69 L 166.73,98.96 L 168.19,98.61 L 171.34,98.08 L 172.95,97.84 L 176.38,97.53 L 178.13,97.40 L 181.80,97.31 L 183.66,97.29 M 74.25,176.24 L 74.75,176.38 L 76.01,176.64 L 77.04,176.73 L 78.13,176.81 L 78.78,176.85 L 80.15,176.91 L 80.93,176.93 L 81.41,176.94 L 73.82,177.04 L 74.01,175.90 M 359.65,98.14 L 361.11,98.23 L 363.89,98.75 L 367.81,100.02 L 369.01,100.53 L 371.32,101.89 L 372.44,102.60 L 374.44,104.22 L 375.37,105.04 L 376.84,106.74 L 378.22,109.16 L 378.29,109.36 L 378.65,109.49 L 378.87,109.51 L 379.53,109.28 L 379.89,109.11 L 380.84,108.52 L 382.57,107.24 L 384.16,105.96 L 387.67,103.77 L 389.47,102.74 L 393.28,101.08 L 395.22,100.32 L 399.23,99.23 L 405.35,98.29 L 407.47,98.13 L 411.16,98.19 L 412.92,98.29 L 415.97,98.89 L 417.42,99.26 L 419.96,100.43 L 423.34,102.87 L 424.27,103.73 L 425.78,105.47 L 426.48,106.35 L 427.53,108.31 L 428.00,109.33 L 428.58,111.74 L 428.82,113.02 L 428.94,116.10 L 428.95,116.92 L 428.86,118.73 L 428.81,119.67 L 428.61,121.73 L 428.50,122.79 L 428.18,125.13 L 428.01,126.33 L 427.58,128.97 L 427.35,130.33 L 426.81,133.30 L 426.52,134.83 L 425.86,138.17 L 425.52,139.88 L 424.75,143.60 L 423.46,149.66 L 422.69,153.19 L 421.26,159.69 L 420.92,161.25 L 420.27,164.13 L 419.96,165.53 L 419.39,168.04 L 419.12,169.24 L 418.64,171.30 L 418.41,172.27 L 418.03,173.82 L 417.86,174.52 L 417.61,175.47 L 417.40,176.17 L 417.36,176.22 L 417.00,176.33 L 416.77,176.39 L 416.06,176.49 L 415.66,176.54 L 414.63,176.63 L 414.09,176.68 L 412.79,176.76 L 411.44,176.83 L 408.09,176.93 L 402.44,177.00 L 400.96,177.00 L 398.42,176.99 L 397.22,176.98 L 395.19,176.94 L 394.24,176.92 L 392.67,176.86 L 391.94,176.82 L 390.78,176.73 L 390.25,176.67 L 389.45,176.54 L 389.09,176.47 L 388.59,176.29 L 388.00,175.58 L 388.00,175.48 L 388.09,174.87 L 388.15,174.51 L 388.35,173.41 L 388.46,172.81 L 388.76,171.28 L 388.92,170.47 L 389.30,168.57 L 389.50,167.58 L 389.95,165.36 L 390.19,164.23 L 390.70,161.76 L 392.42,153.71 L 392.77,152.09 L 393.41,149.11 L 393.72,147.67 L 394.29,145.02 L 394.56,143.73 L 395.05,141.39 L 395.29,140.26 L 395.71,138.20 L 396.11,136.22 L 396.72,133.01 L 397.00,131.52 L 397.37,129.18 L 397.53,128.09 L 397.69,126.43 L 397.75,125.67 L 397.72,124.52 L 397.68,123.99 L 397.50,123.16 L 397.06,122.11 L 396.86,121.75 L 396.27,121.15 L 395.95,120.88 L 395.13,120.47 L 394.27,120.12 L 392.08,119.96 L 390.94,119.98 L 388.48,120.57 L 384.91,122.28 L 384.23,122.74 L 382.98,123.85 L 382.38,124.45 L 381.25,125.90 L 380.69,126.68 L 379.64,128.57 L 379.12,129.58 L 378.12,132.00 L 377.62,133.28 L 376.62,136.32 L 376.12,137.92 L 375.09,141.67 L 374.58,143.64 L 373.49,148.18 L 371.76,156.00 L 367.37,176.50 L 352.69,176.78 L 350.94,176.81 L 348.04,176.86 L 346.68,176.88 L 344.49,176.89 L 343.47,176.89 L 341.89,176.85 L 341.16,176.83 L 340.09,176.74 L 339.61,176.68 L 338.96,176.52 L 338.67,176.43 L 338.33,176.18 L 338.00,175.10 L 338.00,174.96 L 338.10,174.22 L 338.17,173.78 L 338.40,172.47 L 338.52,171.75 L 338.86,169.95 L 339.04,168.99 L 339.48,166.76 L 339.71,165.60 L 340.22,163.01 L 340.49,161.68 L 341.08,158.81 L 343.03,149.46 L 343.39,147.74 L 344.05,144.60 L 344.37,143.08 L 344.94,140.31 L 345.21,138.97 L 345.68,136.55 L 345.90,135.38 L 346.27,133.28 L 346.44,132.27 L 346.72,130.47 L 346.84,129.61 L 347.02,128.09 L 347.17,126.63 L 347.17,124.46 L 347.12,123.47 L 346.71,122.11 L 346.45,121.51 L 345.61,120.77 L 345.14,120.46 L 343.88,120.17 L 341.48,120.02 L 340.38,120.01 L 338.00,120.77 L 336.80,121.26 L 334.42,122.86 L 333.26,123.75 L 331.15,125.99 L 328.57,129.85 L 328.40,130.20 L 327.98,131.24 L 327.77,131.81 L 327.28,133.26 L 327.03,134.02 L 326.49,135.83 L 326.22,136.77 L 325.64,138.89 L 325.04,141.08 L 323.79,146.19 L 321.89,154.57 L 321.31,157.31 L 320.17,162.40 L 319.89,163.63 L 319.36,165.91 L 319.10,167.01 L 318.61,169.01 L 318.37,169.97 L 317.95,171.64 L 317.75,172.42 L 317.40,173.69 L 317.23,174.27 L 316.97,175.09 L 316.70,175.75 L 316.53,175.97 L 315.47,176.32 L 315.14,176.40 L 314.28,176.54 L 313.81,176.60 L 312.66,176.71 L 312.04,176.76 L 310.59,176.84 L 309.82,176.88 L 308.04,176.93 L 307.10,176.95 L 304.98,176.98 L 301.38,177.00 L 299.40,177.00 L 295.80,176.96 L 294.08,176.93 L 291.22,176.84 L 290.57,176.82 L 289.46,176.76 L 288.95,176.73 L 288.13,176.67 L 287.77,176.64 L 287.29,176.57 L 287.10,176.53 L 287.00,176.46 L 287.00,176.33 L 287.17,175.32 L 287.28,174.71 L 287.66,172.82 L 287.87,171.77 L 288.42,169.13 L 288.71,167.72 L 289.41,164.46 L 289.77,162.76 L 290.58,159.01 L 290.99,157.08 L 291.89,152.97 L 292.80,148.79 L 294.76,139.93 L 295.74,135.50 L 297.66,126.91 L 298.13,124.83 L 299.02,120.91 L 299.45,119.00 L 300.25,115.51 L 300.64,113.83 L 301.32,110.90 L 301.64,109.52 L 302.17,107.29 L 302.42,106.27 L 302.78,104.87 L 303.09,103.84 L 303.51,103.05 L 304.70,101.90 L 305.05,101.65 L 305.90,101.23 L 306.36,101.04 L 307.49,100.73 L 308.09,100.59 L 309.55,100.38 L 310.33,100.28 L 312.19,100.15 L 313.17,100.10 L 315.49,100.03 L 319.55,100.00 L 331.22,100.00 L 330.55,103.57 L 330.37,104.55 L 329.89,106.58 L 329.77,107.06 L 329.54,107.88 L 329.24,108.81 L 329.14,109.08 L 329.25,109.30 L 329.35,109.36 L 329.86,109.18 L 330.15,109.05 L 331.02,108.49 L 332.71,107.23 L 334.06,106.16 L 336.91,104.29 L 338.35,103.40 L 341.35,101.90 L 342.86,101.19 L 345.93,100.06 L 347.48,99.55 L 350.58,98.81 L 352.12,98.50 L 355.18,98.16 L 356.70,98.05 M 101.96,75.89 L 102.96,77.33 L 103.47,78.09 L 104.55,79.83 L 105.09,80.73 L 106.21,82.74 L 107.35,84.81 L 109.70,89.59 L 110.88,92.06 L 113.22,97.46 L 114.37,100.20 L 116.57,105.92 L 117.64,108.80 L 119.57,114.57 L 122.00,122.99 L 122.69,125.70 L 123.48,130.67 L 123.63,131.92 L 123.76,134.44 L 123.80,135.72 L 123.72,138.41 L 123.65,139.79 L 123.35,142.77 L 123.17,144.30 L 122.64,147.69 L 122.35,149.45 L 121.58,153.38 L 120.17,160.00 L 116.49,176.50 L 99.00,176.72 L 99.00,127.55 L 99.00,119.40 L 99.01,114.45 L 99.01,112.20 L 99.02,107.84 L 99.02,105.87 L 99.04,102.07 L 99.04,100.37 L 99.06,97.09 L 99.08,95.63 L 99.11,92.83 L 99.12,91.60 L 99.16,89.24 L 99.19,88.21 L 99.23,86.25 L 99.26,85.41 L 99.33,83.81 L 99.36,83.13 L 99.44,81.86 L 99.48,81.33 L 99.67,79.49 L 99.79,78.90 L 100.05,77.92 L 100.21,77.65 L 100.55,77.22 L 100.75,77.10 L 101.65,76.50 L 101.93,76.13 L 101.90,75.91 L 101.82,75.72 M 244.44,99.05 L 245.30,99.08 L 247.45,99.19 L 254.92,99.65 L 256.07,99.74 L 257.95,99.88 L 258.83,99.94 L 260.23,100.07 L 260.87,100.14 L 261.84,100.28 L 262.28,100.36 L 262.90,100.54 L 263.17,100.64 L 263.49,100.88 L 263.63,101.02 L 263.73,101.35 L 263.52,102.79 L 262.90,105.27 L 266.02,102.63 L 267.08,101.75 L 269.00,100.52 L 269.98,99.99 L 272.18,99.40 L 272.77,99.28 L 274.09,99.15 L 274.78,99.10 L 276.36,99.10 L 277.18,99.11 L 279.08,99.21 L 282.36,99.47 L 284.60,99.67 L 288.92,100.00 L 289.90,100.07 L 291.54,100.17 L 293.25,100.25 L 294.11,100.26 L 295.19,100.62 L 295.42,100.75 L 295.70,101.13 L 295.82,101.34 L 295.90,101.90 L 295.91,102.21 L 295.79,102.98 L 295.70,103.40 L 295.37,104.41 L 295.19,104.95 L 294.66,106.24 L 293.64,108.50 L 292.90,110.08 L 290.71,113.24 L 289.54,114.79 L 286.80,117.56 L 285.40,118.87 L 282.54,120.87 L 281.84,121.30 L 280.48,121.95 L 278.58,122.55 L 277.62,122.73 L 275.17,122.82 L 273.90,122.83 L 271.25,122.61 L 269.95,122.47 L 267.64,122.01 L 267.10,121.88 L 266.20,121.58 L 265.14,121.10 L 264.63,120.77 L 264.26,119.76 L 264.19,119.19 L 264.69,117.73 L 265.04,116.95 L 266.37,115.10 L 269.28,111.96 L 269.86,111.41 L 270.73,110.47 L 271.12,110.03 L 271.65,109.32 L 271.87,108.99 L 272.06,108.53 L 272.11,108.33 L 271.98,108.11 L 271.88,108.04 L 271.45,108.09 L 271.20,108.15 L 270.48,108.48 L 270.09,108.68 L 269.10,109.30 L 267.33,110.56 L 266.66,111.07 L 265.44,112.25 L 264.84,112.87 L 263.74,114.34 L 263.20,115.13 L 262.16,117.02 L 261.65,118.02 L 260.65,120.43 L 260.15,121.71 L 259.14,124.74 L 258.63,126.35 L 257.57,130.13 L 257.02,132.12 L 255.86,136.74 L 253.96,144.75 L 253.25,147.84 L 251.84,153.55 L 251.50,154.92 L 250.83,157.48 L 250.50,158.72 L 249.87,160.98 L 249.57,162.06 L 249.00,163.96 L 248.73,164.86 L 248.24,166.35 L 248.01,167.04 L 247.61,168.06 L 247.14,169.00 L 246.11,170.41 L 244.04,172.48 L 242.97,173.40 L 240.45,174.62 L 239.77,174.88 L 238.24,175.28 L 237.44,175.46 L 235.63,175.70 L 234.68,175.81 L 232.53,175.93 L 228.85,176.00 L 227.50,176.00 L 225.03,175.97 L 223.85,175.94 L 221.89,175.87 L 221.00,175.83 L 219.78,175.73 L 219.28,175.68 L 219.00,175.56 L 219.00,175.53 L 219.16,174.73 L 219.27,174.22 L 219.63,172.53 L 219.83,171.58 L 220.37,169.09 L 220.66,167.76 L 221.35,164.59 L 221.71,162.92 L 222.53,159.15 L 222.96,157.20 L 223.89,152.95 L 224.37,150.76 L 225.39,146.11 L 227.00,138.81 L 227.54,136.35 L 228.53,131.86 L 229.01,129.69 L 229.88,125.78 L 230.31,123.88 L 231.08,120.49 L 231.45,118.86 L 232.14,115.95 L 232.48,114.55 L 233.09,112.10 L 233.39,110.92 L 233.95,108.88 L 234.23,107.91 L 234.75,106.24 L 235.00,105.45 L 235.50,104.11 L 235.74,103.49 L 236.22,102.45 L 236.46,101.97 L 236.94,101.20 L 237.42,100.48 L 238.46,99.67 L 239.00,99.35 L 240.24,99.09 L 242.46,99.00 L 242.90,99.00 M 188.86,142.38 L 188.35,142.42 L 186.81,142.62 L 185.97,142.74 L 183.94,143.08 L 182.89,143.27 L 180.62,143.71 L 178.32,144.16 L 173.92,145.17 L 172.91,145.41 L 171.23,145.87 L 169.44,146.46 L 168.59,146.81 L 167.22,147.73 L 166.58,148.21 L 165.61,149.33 L 165.18,149.92 L 164.63,151.18 L 164.40,151.82 L 164.26,153.16 L 164.24,153.83 L 164.52,155.16 L 164.71,155.82 L 165.40,157.08 L 165.80,157.70 L 166.92,158.81 L 169.06,160.25 L 169.58,160.51 L 170.39,160.94 L 170.77,161.13 L 171.38,161.43 L 171.94,161.69 L 172.78,161.84 L 173.21,161.85 L 174.26,161.50 L 174.57,161.39 L 175.33,161.06 L 175.74,160.89 L 176.78,160.45 L 178.14,159.88 L 180.51,158.44 L 181.64,157.67 L 183.58,155.78 L 184.50,154.77 L 186.06,152.38 L 188.03,148.18 L 188.31,147.44 L 188.80,146.05 L 189.03,145.38 L 189.38,144.25 L 189.54,143.73 L 189.73,142.99 L 189.77,142.44 L 189.70,142.37 M 176.88,11.00 L 179.33,11.00 L 183.80,11.01 L 185.96,11.01 L 189.85,11.02 L 191.74,11.03 L 195.10,11.04 L 196.73,11.05 L 199.60,11.07 L 200.98,11.09 L 203.41,11.12 L 204.56,11.14 L 206.57,11.18 L 207.53,11.20 L 209.15,11.26 L 209.92,11.29 L 211.21,11.35 L 211.82,11.39 L 212.80,11.47 L 213.72,11.56 L 214.80,11.78 L 215.24,11.90 L 215.59,12.20 L 215.64,12.75 L 215.58,12.99 L 215.28,14.22 L 215.11,14.94 L 214.66,16.92 L 214.41,17.99 L 213.86,20.48 L 212.97,24.50 L 212.56,26.35 L 211.81,29.33 L 211.44,30.71 L 210.70,32.89 L 210.33,33.89 L 209.53,35.43 L 208.22,37.24 L 205.65,39.97 L 176.10,40.24 L 146.54,40.50 L 144.32,50.50 L 144.02,51.88 L 143.46,54.56 L 143.19,55.87 L 142.74,58.22 L 142.54,59.33 L 142.25,61.09 L 142.05,62.75 L 142.00,65.00 L 202.79,65.00 L 200.81,74.25 L 200.51,75.63 L 199.97,78.00 L 199.71,79.13 L 199.22,81.05 L 198.97,81.96 L 198.49,83.49 L 198.25,84.22 L 197.75,85.44 L 197.24,86.60 L 196.03,88.28 L 193.68,90.41 L 193.01,90.91 L 191.47,91.58 L 191.01,91.73 L 189.77,91.96 L 189.08,92.07 L 187.25,92.24 L 186.24,92.32 L 183.61,92.44 L 182.90,92.47 L 181.28,92.52 L 180.44,92.54 L 178.55,92.58 L 177.58,92.60 L 175.40,92.64 L 174.27,92.66 L 171.77,92.69 L 170.48,92.71 L 167.64,92.74 L 162.96,92.79 L 135.05,93.09 L 134.10,96.79 L 133.97,97.30 L 133.56,99.06 L 133.33,100.04 L 132.77,102.50 L 130.91,111.00 L 130.61,112.44 L 130.00,115.13 L 129.70,116.42 L 129.16,118.62 L 128.90,119.64 L 128.49,121.10 L 128.40,121.41 L 128.25,121.84 L 128.09,122.20 L 128.01,122.29 L 127.68,121.70 L 127.49,121.29 L 127.00,119.84 L 126.75,119.03 L 126.16,116.91 L 125.85,115.78 L 125.23,113.20 L 124.62,110.59 L 123.22,105.61 L 122.49,103.15 L 120.85,98.46 L 119.99,96.15 L 118.08,91.72 L 117.10,89.53 L 114.91,85.33 L 113.78,83.25 L 111.30,79.25 L 110.02,77.27 L 107.22,73.44 L 105.78,71.54 L 102.65,67.84 L 102.31,67.48 L 103.85,69.06 L 104.71,69.95 L 105.53,70.80 L 105.87,71.16 L 106.51,71.83 L 106.75,72.08 L 107.18,72.53 L 107.31,72.67 L 107.50,72.88 L 107.50,72.89 L 107.50,72.88 L 107.50,72.88 L 107.49,72.47 L 107.48,71.76 L 107.48,71.22 L 107.46,70.00 L 107.45,69.23 L 107.42,67.56 L 107.41,66.58 L 107.38,64.53 L 107.37,63.37 L 107.33,60.98 L 107.31,59.69 L 107.24,54.24 L 107.20,51.25 L 107.14,47.40 L 107.09,45.05 L 107.07,43.99 L 107.02,41.94 L 106.99,41.02 L 106.93,39.25 L 106.90,38.48 L 106.83,36.99 L 106.79,36.36 L 106.71,35.15 L 106.67,34.64 L 106.48,32.90 L 106.36,32.42 L 106.11,31.72 L 105.96,31.74 L 105.64,32.03 L 105.45,32.53 L 105.24,33.18 L 105.31,32.88 L 105.89,30.50 L 106.17,29.37 L 106.71,27.39 L 106.98,26.45 L 107.51,24.82 L 107.78,24.04 L 108.33,22.68 L 108.89,21.38 L 110.20,19.29 L 112.67,16.42 L 113.35,15.74 L 114.56,14.63 L 115.18,14.11 L 116.61,13.29 L 117.39,12.91 L 119.47,12.33 L 120.05,12.19 L 121.41,11.97 L 122.12,11.86 L 123.80,11.68 L 124.68,11.59 L 126.72,11.46 L 127.80,11.39 L 130.26,11.29 L 131.56,11.24 L 134.50,11.17 L 136.04,11.13 L 139.52,11.09 L 141.33,11.06 L 145.40,11.04 L 147.51,11.02 L 152.22,11.01 L 154.67,11.01 L 160.08,11.00 L 169.04,11.00 L 171.81,11.00 M 93.72,86.28 L 93.17,88.66 L 92.02,93.61 L 91.40,96.34 L 90.12,101.92 L 89.45,104.89 L 88.08,110.92 L 87.38,114.04 L 85.97,120.33 L 85.66,121.72 L 85.82,121.00 L 86.32,118.71 L 87.27,114.42 L 87.74,112.32 L 88.61,108.40 L 89.04,106.49 L 89.84,102.92 L 90.24,101.19 L 90.97,97.97 L 91.33,96.41 L 92.00,93.52 L 92.32,92.12 L 92.92,89.56 L 93.22,88.32 L 93.76,86.06 L 94.03,84.97 L 94.05,84.86 M 98.96,72.83 L 99.33,73.04 L 100.00,73.65 L 98.81,72.76 M 82.77,49.66 L 82.92,49.79 L 82.68,49.60 M 80.14,47.75 L 82.07,49.16 L 79.93,47.61 M 74.57,44.24 L 78.77,46.88 L 74.40,44.14 M 104.04,38.25 L 103.52,40.48 L 103.15,41.79 L 102.98,42.31 L 102.63,43.25 L 102.48,43.55 L 102.19,44.00 L 102.13,44.00 L 102.49,43.23 L 102.69,42.74 L 103.20,41.14 L 103.47,40.25 L 104.07,38.04 L 104.15,37.69 Z" fill="rgba(52,154,72,1)"/>
<path d="M 98.38,72.43 L 100.26,73.84 L 100.78,74.37 L 101.44,75.11 L 101.71,75.44 L 101.90,75.91 L 101.93,76.13 L 101.65,76.50 L 100.75,77.10 L 100.55,77.22 L 100.21,77.65 L 100.05,77.92 L 99.79,78.90 L 99.67,79.49 L 99.48,81.33 L 99.44,81.86 L 99.36,83.13 L 99.33,83.81 L 99.26,85.41 L 99.23,86.25 L 99.19,88.21 L 99.16,89.24 L 99.12,91.60 L 99.11,92.83 L 99.08,95.63 L 99.06,97.09 L 99.04,100.37 L 99.04,102.07 L 99.02,105.87 L 99.02,107.84 L 99.01,112.20 L 99.01,114.45 L 99.00,119.40 L 99.00,127.55 L 99.00,177.00 L 85.43,177.00 L 83.50,176.98 L 82.58,176.97 L 80.93,176.93 L 80.15,176.91 L 78.78,176.85 L 78.13,176.81 L 77.04,176.73 L 76.01,176.64 L 74.75,176.38 L 74.25,176.24 L 74.00,175.88 L 74.00,175.79 L 74.06,175.34 L 74.11,175.07 L 74.25,174.28 L 74.33,173.83 L 74.55,172.71 L 74.67,172.11 L 74.96,170.69 L 75.11,169.94 L 75.47,168.24 L 75.65,167.35 L 76.06,165.40 L 76.49,163.38 L 77.50,158.70 L 78.03,156.26 L 79.20,150.87 L 79.80,148.10 L 81.10,142.20 L 82.42,136.21 L 85.26,123.50 L 85.97,120.33 L 87.38,114.04 L 88.08,110.92 L 89.45,104.89 L 90.12,101.92 L 91.40,96.34 L 92.02,93.61 L 93.17,88.66 L 93.72,86.28 L 94.69,82.16 L 94.92,81.19 L 95.33,79.44 L 95.54,78.59 L 95.90,77.11 L 96.07,76.41 L 96.36,75.23 L 96.50,74.67 L 96.73,73.81 L 96.83,73.42 L 96.98,72.90 L 97.12,72.54 L 97.26,72.39 L 97.65,72.29 L 97.86,72.27 M 56.48,8.43 L 59.01,8.51 L 63.82,9.11 L 66.18,9.48 L 70.65,10.66 L 77.00,13.08 L 78.33,13.70 L 80.92,15.19 L 82.19,15.98 L 84.64,17.77 L 85.84,18.70 L 88.11,20.75 L 89.23,21.81 L 91.30,24.09 L 92.30,25.25 L 94.13,27.71 L 95.01,28.96 L 96.57,31.57 L 97.31,32.89 L 98.56,35.60 L 100.06,39.75 L 100.41,40.92 L 101.17,42.75 L 101.36,43.14 L 101.69,43.66 L 102.09,44.00 L 102.19,44.00 L 102.48,43.55 L 102.63,43.25 L 102.98,42.31 L 103.15,41.79 L 103.52,40.48 L 104.04,38.25 L 104.32,36.86 L 104.82,34.72 L 105.05,33.77 L 105.45,32.53 L 105.64,32.03 L 105.96,31.74 L 106.11,31.72 L 106.36,32.42 L 106.48,32.90 L 106.67,34.64 L 106.71,35.15 L 106.79,36.36 L 106.83,36.99 L 106.90,38.48 L 106.93,39.25 L 106.99,41.02 L 107.02,41.94 L 107.07,43.99 L 107.09,45.05 L 107.14,47.40 L 107.20,51.25 L 107.24,54.24 L 107.31,59.69 L 107.33,60.98 L 107.37,63.37 L 107.38,64.53 L 107.41,66.58 L 107.42,67.56 L 107.45,69.23 L 107.46,70.00 L 107.48,71.22 L 107.48,71.76 L 107.49,72.47 L 107.50,72.88 L 107.50,72.88 L 107.50,72.89 L 107.50,72.88 L 107.31,72.67 L 107.18,72.53 L 106.75,72.08 L 106.51,71.83 L 105.87,71.16 L 105.53,70.80 L 104.71,69.95 L 103.85,69.06 L 101.69,66.83 L 100.55,65.66 L 98.00,63.04 L 95.46,60.44 L 90.45,55.84 L 87.93,53.63 L 82.77,49.66 L 80.14,47.75 L 74.57,44.24 L 65.49,39.28 L 63.20,38.14 L 58.90,36.14 L 57.87,35.68 L 55.94,34.84 L 55.00,34.44 L 53.30,33.76 L 52.49,33.44 L 51.06,32.92 L 50.39,32.69 L 49.30,32.36 L 48.79,32.22 L 48.08,32.10 L 47.48,32.18 L 47.42,32.25 L 47.91,32.75 L 48.25,33.06 L 49.42,33.96 L 50.08,34.45 L 51.78,35.62 L 54.75,37.56 L 56.59,38.72 L 60.62,41.52 L 62.67,42.98 L 66.93,46.20 L 69.06,47.84 L 73.27,51.24 L 75.35,52.94 L 79.25,56.29 L 81.14,57.94 L 84.48,61.02 L 85.27,61.76 L 86.69,63.15 L 87.37,63.83 L 88.55,65.07 L 89.11,65.67 L 90.03,66.73 L 90.46,67.24 L 91.08,68.10 L 91.34,68.50 L 91.63,69.12 L 91.65,69.76 L 91.53,69.96 L 90.73,70.32 L 90.26,70.49 L 88.85,70.79 L 88.09,70.92 L 86.20,71.14 L 85.21,71.24 L 82.97,71.39 L 80.65,71.51 L 75.48,71.48 L 67.90,70.99 L 65.63,70.73 L 61.49,70.08 L 59.48,69.72 L 55.80,68.85 L 54.01,68.39 L 50.73,67.27 L 49.13,66.67 L 46.19,65.27 L 44.75,64.53 L 42.07,62.81 L 40.76,61.91 L 38.30,59.85 L 37.08,58.77 L 34.76,56.33 L 31.37,52.20 L 29.64,49.89 L 25.63,45.18 L 23.56,42.83 L 19.18,38.33 L 16.98,36.14 L 12.62,32.23 L 11.55,31.31 L 9.48,29.65 L 6.52,27.47 L 5.76,26.95 L 4.38,25.93 L 3.72,25.44 L 2.62,24.56 L 2.12,24.15 L 1.44,23.50 L 1.00,22.91 L 1.00,22.86 L 1.21,22.68 L 1.35,22.57 L 1.81,22.30 L 2.33,22.01 L 4.01,21.20 L 4.94,20.77 L 7.27,19.76 L 11.25,18.15 L 14.78,16.77 L 21.52,14.45 L 24.83,13.36 L 31.15,11.63 L 34.26,10.83 L 40.17,9.68 L 43.08,9.18 L 48.60,8.62 L 51.32,8.41 Z" fill="rgba(71,167,84,1)"/>
<path d="M 883.23,102.56 L 883.18,101.86 L 883.78,100.36 L 884.18,99.62 L 885.46,98.24 L 886.15,97.59 L 887.78,96.63 L 890.26,96.00 L 890.58,96.00 L 891.75,95.65 L 892.41,95.42 L 894.07,94.70 L 895.80,93.92 L 899.79,91.81 L 900.76,91.28 L 902.53,90.24 L 903.38,89.73 L 904.74,88.82 L 905.34,88.40 L 906.07,87.76 L 906.18,87.23 L 906.01,87.17 L 905.46,87.16 L 905.15,87.16 L 904.39,87.26 L 901.82,87.91 L 901.25,88.11 L 900.33,88.38 L 899.91,88.50 L 899.25,88.60 L 898.96,88.63 L 898.57,88.56 L 898.41,88.50 L 898.29,88.26 L 898.26,88.11 L 898.40,87.68 L 898.51,87.44 L 898.92,86.83 L 899.15,86.49 L 899.82,85.68 L 901.12,84.23 L 902.70,82.55 L 905.53,79.26 L 906.87,77.67 L 909.01,74.87 L 909.49,74.22 L 910.26,73.08 L 910.61,72.54 L 911.10,71.67 L 911.31,71.27 L 911.49,70.71 L 911.36,70.29 L 911.06,70.19 L 910.04,69.61 L 908.39,68.50 L 908.18,68.34 L 908.01,68.07 L 907.97,67.95 L 908.20,67.74 L 908.39,67.65 L 909.15,67.49 L 909.61,67.42 L 911.02,67.31 L 911.81,67.26 L 913.97,67.18 L 915.15,67.15 L 918.17,67.10 L 919.80,67.08 L 923.79,67.06 L 924.86,67.06 L 927.19,67.05 L 931.00,67.05 L 934.37,67.04 L 940.62,67.11 L 942.12,67.13 L 944.91,67.19 L 946.26,67.22 L 948.71,67.29 L 949.88,67.33 L 951.91,67.42 L 952.86,67.46 L 954.41,67.56 L 955.11,67.62 L 956.10,67.73 L 956.88,67.90 L 957.18,68.09 L 957.29,68.76 L 957.27,69.14 L 956.80,70.12 L 956.50,70.64 L 955.54,71.84 L 955.00,72.47 L 953.64,73.82 L 952.91,74.50 L 951.23,75.92 L 950.35,76.62 L 948.44,78.01 L 942.25,81.72 L 941.41,82.14 L 939.94,82.84 L 939.23,83.17 L 937.95,83.71 L 936.69,84.23 L 934.33,84.90 L 933.11,85.19 L 930.25,85.55 L 929.46,85.63 L 927.67,85.77 L 924.53,85.95 L 922.66,86.05 L 919.64,86.30 L 918.24,86.43 L 916.05,86.77 L 915.05,86.95 L 913.54,87.40 L 911.89,88.23 L 911.56,88.47 L 910.34,89.32 L 909.65,89.79 L 907.88,91.00 L 906.95,91.64 L 904.86,93.05 L 901.61,95.23 L 900.58,95.92 L 898.71,97.16 L 897.79,97.77 L 896.13,98.86 L 894.52,99.91 L 891.88,101.59 L 890.65,102.35 L 888.69,103.47 L 887.79,103.97 L 886.41,104.59 L 885.79,104.84 L 884.88,104.99 L 884.48,105.02 L 883.95,104.75 L 883.72,104.56 L 883.45,103.91 L 883.34,103.55 Z" fill="rgba(107,156,179,1)"/>
</g>
</svg>