<?xml version="1.0" encoding="UTF-8" standalone="no"?>
<!-- Generator: Adobe Illustrator 24.0.1, SVG Export Plug-In . SVG Version: 6.00 Build 0)  -->

<svg
   version="1.1"
   id="Group_2"
   x="0px"
   y="0px"
   viewBox="0 0 21463.098 2323.24"
   xml:space="preserve"
   width="21463.098"
   height="2323.24"
   xmlns="http://www.w3.org/2000/svg"
   xmlns:svg="http://www.w3.org/2000/svg"><defs
   id="defs21" />
<style
   type="text/css"
   id="style1">
	.st0{fill:url(#Path_1_1_);}
	.st1{fill:url(#Path_2_1_);}
	.st2{fill:url(#Path_3_1_);}
	.st3{fill:url(#Path_4_1_);}
	.st4{fill:url(#Path_5_1_);}
	.st5{enable-background:new    ;}
	.st6{fill:#747473;}
</style>
<linearGradient
   id="Path_1_1_"
   gradientUnits="userSpaceOnUse"
   x1="-265.39459"
   y1="314.7088"
   x2="-265.39459"
   y2="313.68481"
   gradientTransform="matrix(4.2784,0,0,-36.015,1252.4681,11333.768)">
	<stop
   offset="0"
   style="stop-color:#F26A2F"
   id="stop1" />
	<stop
   offset="1"
   style="stop-color:#E50D40"
   id="stop2" />
</linearGradient>
<path
   id="Path_1"
   class="st0"
   d="M 114.9,34.9 V 1.1 c 0,-0.6 0.5,-1.1 1.1,-1.1 0,0 0,0 0,0 h 2.1 c 0.6,0 1.1,0.5 1.1,1.1 0,0 0,0 0,0 v 33.7 c 0,0.6 -0.5,1.1 -1.1,1.1 0,0 0,0 0,0 H 116 c -0.7,0.1 -1.1,-0.4 -1.1,-1 z"
   style="fill:url(#Path_1_1_)" />
<linearGradient
   id="Path_2_1_"
   gradientUnits="userSpaceOnUse"
   x1="-332.33591"
   y1="312.31311"
   x2="-332.94791"
   y2="311.54111"
   gradientTransform="matrix(25.0984,0,0,-27.6057,8483.5811,8632.5146)">
	<stop
   offset="0"
   style="stop-color:#F26A2F"
   id="stop3" />
	<stop
   offset="1"
   style="stop-color:#E50D40"
   id="stop4" />
</linearGradient>
<path
   id="Path_2"
   class="st1"
   d="m 133.9,36.5 c -3.4,0.1 -6.7,-1.3 -9,-3.8 -2.3,-2.5 -3.5,-5.9 -3.5,-10 0,-4.2 1.2,-7.5 3.5,-10 5,-5 13,-5 18.2,-0.2 2.3,2.5 3.5,5.8 3.4,9.1 0,0.5 0,1.1 -0.1,1.6 0,0.6 -0.5,1.1 -1.1,1.1 H 127 c -0.6,0 -1.1,0.5 -1.1,1.2 0,0.1 0,0.1 0,0.2 0.2,1.9 1,3.6 2.3,5 1.5,1.5 3.6,2.4 5.7,2.3 1.6,0.1 3.1,-0.4 4.4,-1.2 1,-0.7 1.8,-1.6 2.4,-2.6 0.2,-0.4 0.6,-0.6 1,-0.6 h 2.2 c 0.6,0 1.1,0.5 1.1,1.2 0,0.2 0,0.3 -0.1,0.5 -0.8,1.6 -2,3 -3.5,4.1 -2.1,1.3 -4.8,2.2 -7.5,2.1 z m 5.8,-21.7 c -3.2,-3.1 -8.2,-3.1 -11.4,0 -1.3,1.3 -2.1,3 -2.3,4.9 -0.1,0.6 0.3,1.2 0.9,1.3 0.1,0 0.1,0 0.2,0 h 13.7 c 0.6,0 1.1,-0.5 1.1,-1.2 0,0 0,-0.1 0,-0.1 -0.1,-1.9 -0.9,-3.6 -2.2,-4.9 z"
   style="fill:url(#Path_2_1_)" />
<g
   id="Group_1"
   transform="translate(0,9.2)">
	
		<linearGradient
   id="Path_3_1_"
   gradientUnits="userSpaceOnUse"
   x1="-326.66141"
   y1="302.85419"
   x2="-327.49741"
   y2="302.09421"
   gradientTransform="matrix(17.9484,0,0,-26.814,5881.0864,8121.8223)">
		<stop
   offset="0"
   style="stop-color:#F26A2F"
   id="stop5" />
		<stop
   offset="1"
   style="stop-color:#E50D40"
   id="stop6" />
	</linearGradient>
	<path
   id="Path_3"
   class="st2"
   d="m 17.9,1.3 v 2.8 c 0,0.3 -0.1,0.5 -0.2,0.7 L 7.6,20.2 c -0.4,0.6 -0.3,1.4 0.3,1.8 0.2,0.1 0.4,0.2 0.7,0.2 h 8.1 c 0.7,0 1.3,0.6 1.3,1.3 v 1.9 c 0,0.7 -0.6,1.3 -1.3,1.3 H 1.3 C 0.6,26.7 0,26.1 0,25.4 V 22.6 C 0,22.3 0.1,22.1 0.2,21.9 L 10.4,6.6 C 10.8,6 10.7,5.2 10.1,4.8 9.9,4.6 9.6,4.5 9.4,4.5 H 1.3 C 0.6,4.5 0,3.9 0,3.2 V 1.3 C 0,0.6 0.6,0 1.3,0 h 15.4 c 0.7,0 1.3,0.6 1.2,1.3 z"
   style="fill:url(#Path_3_1_)" />
</g>
<linearGradient
   id="Path_4_1_"
   gradientUnits="userSpaceOnUse"
   x1="-340.47711"
   y1="312.66171"
   x2="-341.30109"
   y2="312.66171"
   gradientTransform="matrix(62.9774,0,0,-29.9527,21526.121,9387.5244)">
	<stop
   offset="0"
   style="stop-color:#F26A2F"
   id="stop7" />
	<stop
   offset="1"
   style="stop-color:#E50D40"
   id="stop8" />
</linearGradient>
<path
   id="Path_4"
   class="st3"
   d="m 46.1,24.3 3,3.3 c -4.7,8 -12.5,11.5 -19.7,9 C 23.3,34.5 19.4,27.9 20,20.7 20.7,14.2 25.6,9 32,7.8 c 5.2,-0.8 9.4,1 13,4.7 5.4,5.7 10.9,11.5 16.4,17.2 3.5,3.9 9.5,4.2 13.5,0.7 0.4,-0.3 0.7,-0.7 1,-1.1 3.7,-4.3 3.3,-10.7 -0.8,-14.6 -3.8,-3.6 -9.7,-3.4 -13.3,0.3 -1.7,1.7 -3.1,3.6 -4.9,5.7 l -3.6,-3.9 c 2.9,-2.6 5.4,-5.3 8.3,-7.2 6.2,-4.1 14.8,-1.9 18.9,4.6 4.1,6.5 2.7,15.7 -3.3,20.2 C 71,39 63.4,38.3 58,32.6 52.5,26.8 47,21 41.4,15.3 37.8,11.4 31.7,11.1 27.8,14.7 c -0.3,0.3 -0.6,0.6 -0.9,0.9 -3.6,4.3 -3.2,10.7 0.8,14.6 3.8,3.6 9.9,3.4 13.5,-0.4 0.1,-0.1 0.1,-0.2 0.2,-0.2 1.6,-1.6 3,-3.3 4.7,-5.3 z"
   style="fill:url(#Path_4_1_)" />
<linearGradient
   id="Path_5_1_"
   gradientUnits="userSpaceOnUse"
   x1="-333.30679"
   y1="315.30829"
   x2="-334.09879"
   y2="314.4093"
   gradientTransform="matrix(26.6831,0,0,-39.3319,8997.8936,12411.592)">
	<stop
   offset="0"
   style="stop-color:#F26A2F"
   id="stop9" />
	<stop
   offset="1"
   style="stop-color:#E50D40"
   id="stop10" />
</linearGradient>
<path
   id="Path_5"
   class="st4"
   d="m 109.1,12.6 c -3.9,-4.1 -10,-4.9 -14.9,-2.2 -1,0.6 -1.9,1.4 -2.8,2.3 -0.3,0.3 -0.8,0.3 -1.1,0 C 90.1,12.5 90,12.3 90,12.1 V 9.9 c 0,-0.4 -0.3,-0.8 -0.8,-0.8 0,0 0,0 0,0 h -2.6 c -0.4,0 -0.8,0.4 -0.8,0.8 0,0 0,0 0,0 v 37.5 c 0,0.4 0.3,0.8 0.8,0.8 0,0 0,0 0,0 h 2.6 c 0.4,0 0.8,-0.4 0.8,-0.8 0,0 0,0 0,0 V 33.1 c 0,-0.4 0.3,-0.8 0.7,-0.8 0.2,0 0.5,0.1 0.6,0.3 0.8,0.9 1.8,1.6 2.8,2.3 1.8,1.1 3.8,1.7 5.9,1.6 3.4,0.1 6.6,-1.4 8.9,-3.9 2.4,-2.8 3.7,-6.3 3.6,-10 0,-4.2 -1.1,-7.5 -3.4,-10 z m -2.8,17.3 c -9.6,6.8 -20,-4 -13.5,-13.9 0.3,-0.4 0.6,-0.8 1,-1.1 9.6,-6.8 20,4 13.5,13.9 -0.2,0.4 -0.6,0.8 -1,1.1 z"
   style="fill:url(#Path_5_1_)" />
<g
   class="st5"
   id="g21">
	<path
   id="path10"
   class="st6"
   d="m 1.4003906,45.570312 v 0.0293 h 0.013672 c -0.00469,-0.0093 -0.00924,-0.02059 -0.013672,-0.0293 z" />
	
	<path
   id="path12"
   class="st6"
   d="m 11.292969,41.46875 c -0.01914,0.0052 -0.03775,0.0098 -0.05664,0.01563 0.01952,-0.0025 0.03909,-0.0051 0.05859,-0.0078 -7.76e-4,-0.0025 -0.0012,-0.0053 -0.002,-0.0078 z" />
	
	
	
	
	
	<path
   id="path18"
   class="st6"
   d="m 46.921875,44.880859 c -0.0013,7.77e-4 -0.0027,0.0012 -0.0039,0.002 0.0013,-5.7e-5 0.0026,5.9e-5 0.0039,0 z" />
	<path
   id="path19"
   class="st6"
   d="m 50.988281,42.009766 c -0.0035,0.0072 -0.0062,0.01433 -0.0098,0.02148 0.0075,-0.0023 0.01432,-0.0054 0.02148,-0.0078 v -0.0059 c -0.0038,-0.0024 -0.0073,-0.0053 -0.01172,-0.0078 z" />
	
	
</g>
</svg>
